<svg id="svg" version="1.1" xmlns="http://www.w3.org/2000/svg" viewBox="0 0 1536 1024" style="display: block;"><path d="M0 0 C506.88 0 1013.76 0 1536 0 C1536 337.92 1536 675.84 1536 1024 C1029.12 1024 522.24 1024 0 1024 C0 686.08 0 348.16 0 0 Z " transform="translate(0,0)" style="fill: #FDFDFD;"/><path d="M0 0 C0.33 19.8 0.66 39.6 1 60 C3.97 57.69 6.94 55.38 10 53 C19.67840148 47.57422947 28.88789083 45.73232876 40 47 C47.18162141 49.30056812 51.88134874 53.12652886 55.87890625 59.4609375 C59.41823224 67.47683259 59.32234081 75.39033916 59.37890625 84.01953125 C59.39510966 85.36855744 59.41229256 86.71757218 59.43040466 88.0665741 C59.47580279 91.59490669 59.51076394 95.12325521 59.54260254 98.6517334 C59.59476087 104.31587263 59.65970251 109.97984431 59.73081779 115.64377403 C59.75359355 117.6174341 59.7696127 119.59116839 59.78553772 121.56489563 C59.79902756 122.76011337 59.8125174 123.95533112 59.82641602 125.18676758 C59.83592789 126.23963455 59.84543976 127.29250153 59.85523987 128.37727356 C59.89060564 131.11092466 59.89060564 131.11092466 61 134 C63.09719872 135.02281518 63.09719872 135.02281518 65.5625 135.6875 C66.80193359 136.06455078 66.80193359 136.06455078 68.06640625 136.44921875 C69.02353516 136.72185547 69.02353516 136.72185547 70 137 C70 138.65 70 140.3 70 142 C54.49 142 38.98 142 23 142 C23 140.35 23 138.7 23 137 C23.83144531 136.72736328 23.83144531 136.72736328 24.6796875 136.44921875 C25.76636719 136.07216797 25.76636719 136.07216797 26.875 135.6875 C27.59429688 135.44386719 28.31359375 135.20023438 29.0546875 134.94921875 C31.33994905 134.03664453 31.33994905 134.03664453 33 131 C33.31756713 128.45033514 33.31756713 128.45033514 33.29052734 125.55395508 C33.30328705 124.43882034 33.31604675 123.32368561 33.32919312 122.17475891 C33.33141876 120.96853378 33.33364441 119.76230865 33.3359375 118.51953125 C33.3425943 117.27757492 33.3492511 116.03561859 33.35610962 114.75602722 C33.36624637 112.12390859 33.37179047 109.49220273 33.37060547 106.86010742 C33.37044315 104.17038005 33.3842849 101.48133533 33.41162109 98.79174805 C33.44835983 94.90913137 33.45808338 91.02730471 33.4609375 87.14453125 C33.47530853 85.94842728 33.48967957 84.7523233 33.50448608 83.51997375 C33.46646774 76.53265585 32.77662187 71.93362527 29 66 C24.70167249 61.96217719 20.31109641 61.66119652 14.640625 61.7109375 C9.86974609 62.23319348 6.18956359 64.34069431 2.41656494 67.19996643 C0.3771527 69.79145404 0.63254028 71.69739436 0.64355469 74.96850586 C0.64055359 76.19665512 0.63755249 77.42480438 0.63446045 78.69017029 C0.64646831 80.03173234 0.65895141 81.37329021 0.671875 82.71484375 C0.67493366 84.09102675 0.67680897 85.46721285 0.67755127 86.84339905 C0.68215353 89.72766979 0.69657392 92.61166122 0.71875 95.49584961 C0.74700571 99.18911466 0.75795916 102.88215955 0.7624321 106.57552242 C0.76659422 109.41771132 0.77641874 112.25985593 0.78830719 115.10202217 C0.79399671 116.46355398 0.79875973 117.82508999 0.80257416 119.18662834 C0.80946733 121.09181137 0.82400187 122.9969621 0.83886719 124.90209961 C0.84569519 125.98559189 0.85252319 127.06908417 0.85955811 128.18540955 C0.92033176 131.2306719 0.92033176 131.2306719 2 135 C4.97 135.66 7.94 136.32 11 137 C11 138.65 11 140.3 11 142 C-4.84 142 -20.68 142 -37 142 C-37 140.02 -37 138.04 -37 136 C-36.37351562 135.91363281 -35.74703125 135.82726562 -35.1015625 135.73828125 C-34.28429687 135.59777344 -33.46703125 135.45726562 -32.625 135.3125 C-31.40683594 135.12107422 -31.40683594 135.12107422 -30.1640625 134.92578125 C-27.78841135 134.18631721 -27.78841135 134.18631721 -26.88061905 131.743783 C-26.01097676 129.03420077 -25.74864761 127.00383631 -25.74603271 124.1736908 C-25.74039307 123.23021286 -25.73475342 122.28673492 -25.72894287 121.31466675 C-25.73299133 120.29164459 -25.73703979 119.26862244 -25.74121094 118.21459961 C-25.7377063 117.12789474 -25.73420166 116.04118988 -25.73059082 114.92155457 C-25.72179275 111.33175253 -25.72761558 107.74214777 -25.734375 104.15234375 C-25.7330279 101.65800438 -25.73108699 99.16366526 -25.72857666 96.66932678 C-25.72525049 90.77393103 -25.73224758 84.87860685 -25.7428782 78.98322159 C-25.75145841 73.61360773 -25.74539162 68.24408892 -25.735605 62.87448114 C-25.72543142 57.05937211 -25.72651313 51.24431434 -25.73236847 45.42920113 C-25.73370408 42.95681298 -25.73206036 40.4844214 -25.72740936 38.01203728 C-25.72234016 34.55993341 -25.73005994 31.10809027 -25.74121094 27.65600586 C-25.73716248 26.63095947 -25.73311401 25.60591309 -25.72894287 24.54980469 C-25.73458252 23.60914658 -25.74022217 22.66848846 -25.74603271 21.69932556 C-25.74716379 20.47570769 -25.74716379 20.47570769 -25.74831772 19.22737026 C-26.03109586 16.72480389 -26.65044016 15.11955869 -28 13 C-30.17208588 12.08839907 -30.17208588 12.08839907 -32.625 11.75 C-33.44226563 11.60046875 -34.25953125 11.4509375 -35.1015625 11.296875 C-35.72804688 11.19890625 -36.35453125 11.1009375 -37 11 C-37 9.02 -37 7.04 -37 5 C-36.20303711 4.88406494 -35.40607422 4.76812988 -34.58496094 4.64868164 C-30.97299861 4.1220468 -27.36149809 3.5923086 -23.75 3.0625 C-21.86861328 2.78889648 -21.86861328 2.78889648 -19.94921875 2.50976562 C-18.14130859 2.24389648 -18.14130859 2.24389648 -16.296875 1.97265625 C-15.18666992 1.81031494 -14.07646484 1.64797363 -12.93261719 1.48071289 C-10.13264913 1.0760983 -10.13264913 1.0760983 -7.98144531 0.43920898 C-6 0 -6 0 0 0 Z " transform="translate(828,436)" style="fill: #31343C;"/><path d="M0 0 C0.33 9.9 0.66 19.8 1 30 C-1.31 30 -3.62 30 -6 30 C-6.29132813 29.2265625 -6.58265625 28.453125 -6.8828125 27.65625 C-10.9350502 17.35999824 -14.34078358 10.63935957 -24.6328125 5.91015625 C-32.78635629 2.77521284 -42.4229862 2.66056634 -50.625 5.6875 C-54.45822571 7.45958139 -56.75068876 9.34486923 -59 13 C-59.66 13.99 -60.32 14.98 -61 16 C-61.35774124 19.4560893 -61.35774124 19.4560893 -61.3125 23.3125 C-61.32925781 24.60800781 -61.34601562 25.90351563 -61.36328125 27.23828125 C-60.8702879 32.34314788 -59.12171363 36.49343622 -55.3125 40 C-50.10713996 44.17727438 -43.62966751 45.98930201 -37.40820312 48.15527344 C-2.11417106 60.53537795 -2.11417106 60.53537795 4.87182617 74.77734375 C7.04130492 79.9537342 7.50897985 84.67400435 7.4375 90.25 C7.42992676 91.08120361 7.42235352 91.91240723 7.41455078 92.76879883 C7.07280008 105.62436268 2.52185216 114.84427779 -6.625 123.6875 C-17.91356676 133.17769624 -32.22409655 134.40387858 -46.3125 134.375 C-47.45176437 134.37667679 -47.45176437 134.37667679 -48.61404419 134.37838745 C-61.36727784 134.36911311 -72.84962317 133.05012561 -85 129 C-85.33917131 124.85462295 -85.67026953 120.70863782 -86 116.5625 C-86.09539063 115.39783203 -86.19078125 114.23316406 -86.2890625 113.03320312 C-86.79138362 106.66448898 -87.1093176 100.38824697 -87 94 C-85.02 94 -83.04 94 -81 94 C-80.11248047 95.73636719 -80.11248047 95.73636719 -79.20703125 97.5078125 C-78.40924216 99.04707616 -77.61104324 100.58612745 -76.8125 102.125 C-76.23145508 103.26582031 -76.23145508 103.26582031 -75.63867188 104.4296875 C-70.46263524 114.35398914 -64.36735078 120.75252026 -53.5625 124.3125 C-44.40471259 126.88127503 -36.95060862 126.43517242 -28 123 C-23.00782231 120.05926375 -19.78061282 115.98052166 -18.3125 110.375 C-17.20063999 98.60860759 -17.20063999 98.60860759 -22.3125 88.33203125 C-29.04287656 81.27448361 -39.02553333 79.04267632 -48 76 C-56.99072683 72.8867931 -65.38284623 69.88289108 -73 64 C-74.3303125 63.13375 -74.3303125 63.13375 -75.6875 62.25 C-82.46684062 55.65388481 -86.19497989 46.9611995 -86.38037109 37.57958984 C-86.36209488 29.65269786 -86.16558128 22.99922121 -82 16 C-81.39865234 14.96359375 -81.39865234 14.96359375 -80.78515625 13.90625 C-73.35943468 2.71385807 -61.98283301 -1.848275 -49.3359375 -4.57421875 C-32.22208509 -6.75853949 -16.48490191 -4.61116137 0 0 Z " transform="translate(781,446)" style="fill: #2E323A;"/><path d="M0 0 C17.49 0 34.98 0 53 0 C53 1.98 53 3.96 53 6 C52.37351562 6.18175781 51.74703125 6.36351562 51.1015625 6.55078125 C50.28429687 6.80214844 49.46703125 7.05351562 48.625 7.3125 C47.81289063 7.55613281 47.00078125 7.79976563 46.1640625 8.05078125 C43.66815371 8.91368185 43.66815371 8.91368185 42 12 C41.69713014 14.11617926 41.69713014 14.11617926 41.73930359 16.4786377 C41.72867638 17.85403465 41.72867638 17.85403465 41.71783447 19.25721741 C41.72031189 20.26094894 41.72278931 21.26468048 41.7253418 22.29882812 C41.72023087 23.35758652 41.71511993 24.41634491 41.70985413 25.50718689 C41.6959267 29.01526504 41.69691712 32.52314745 41.69921875 36.03125 C41.69533389 38.46358311 41.69099966 40.89591553 41.68623352 43.32824707 C41.67876476 48.42930296 41.6790676 53.53028965 41.68432617 58.63134766 C41.6901252 65.17885373 41.67318226 71.72607734 41.6499815 78.27353668 C41.63527465 83.29715643 41.63436824 88.32070764 41.63749123 93.34434509 C41.6369766 95.75895243 41.63171247 98.17356347 41.62167931 100.58815002 C41.60938983 103.95934605 41.61606148 107.32998525 41.62768555 110.70117188 C41.62004181 111.70490341 41.61239807 112.70863495 41.60452271 113.74278259 C41.61504417 115.11817955 41.61504417 115.11817955 41.6257782 116.5213623 C41.62552659 117.71707478 41.62552659 117.71707478 41.62526989 118.93694305 C42.09613771 121.5292811 42.92963576 122.41527247 45 124 C47.44394115 124.46185194 47.44394115 124.46185194 50.19140625 124.3984375 C51.73344727 124.40423828 51.73344727 124.40423828 53.30664062 124.41015625 C54.38107422 124.39855469 55.45550781 124.38695312 56.5625 124.375 C58.13354492 124.39240234 58.13354492 124.39240234 59.73632812 124.41015625 C67.54056936 124.38105405 76.21658058 124.00294233 82.1875 118.375 C86.8737759 112.21167439 89.27294865 104.17262915 92 97 C94.31 97 96.62 97 99 97 C98.01 109.54 97.02 122.08 96 135 C64.65 135 33.3 135 1 135 C1 133.02 1 131.04 1 129 C1.62648438 128.75765625 2.25296875 128.5153125 2.8984375 128.265625 C4.12433594 127.76289062 4.12433594 127.76289062 5.375 127.25 C6.18710937 126.92515625 6.99921875 126.6003125 7.8359375 126.265625 C10.43633425 124.74481535 10.89675608 123.76310633 12 121 C12.29720716 118.80091821 12.29720716 118.80091821 12.25396729 116.44580078 C12.25960693 115.53735413 12.26524658 114.62890747 12.27105713 113.69293213 C12.26700867 112.70371765 12.26296021 111.71450317 12.25878906 110.6953125 C12.2622937 109.64776794 12.26579834 108.60022339 12.26940918 107.52093506 C12.27821726 104.05555612 12.27238049 100.59038105 12.265625 97.125 C12.26697191 94.71891236 12.26891266 92.31282499 12.27142334 89.90673828 C12.27437336 84.86292938 12.27008082 79.8191913 12.26074219 74.77539062 C12.2493478 68.30541345 12.25590791 61.83560219 12.26788712 55.3656311 C12.27510897 50.39687852 12.27281627 45.42816538 12.26763153 40.45941162 C12.26629594 38.07354716 12.26793959 35.68767914 12.27259064 33.30181885 C12.27766111 29.96934504 12.26993804 26.63714117 12.25878906 23.3046875 C12.26283752 22.31547302 12.26688599 21.32625854 12.27105713 20.30706787 C12.26541748 19.39862122 12.25977783 18.49017456 12.25396729 17.55419922 C12.25321323 16.76665253 12.25245918 15.97910583 12.25168228 15.16769409 C11.9642123 12.69176695 11.33541576 11.09884125 10 9 C7.60540353 7.87108243 7.60540353 7.87108243 4.875 7.25 C3.96492188 7.00765625 3.05484375 6.7653125 2.1171875 6.515625 C1.41851562 6.34546875 0.71984375 6.1753125 0 6 C0 4.02 0 2.04 0 0 Z " transform="translate(395,443)" style="fill: #1F3D34;"/><path d="M0 0 C0.74314453 0.00563965 1.48628906 0.0112793 2.25195312 0.01708984 C12.09671795 0.233812 20.03485101 2.87325652 27.625 9.3125 C37.46801974 19.70357207 38.625 30.19183011 38.625 44.3125 C19.815 44.3125 1.005 44.3125 -18.375 44.3125 C-17.33061008 56.84517906 -15.5039801 66.80158082 -6.125 75.5 C1.73326608 81.80315658 9.7437836 82.15008306 19.625 81.3125 C25.46350207 80.14310481 29.81462253 77.71496211 34.625 74.3125 C35.285 74.3125 35.945 74.3125 36.625 74.3125 C37.285 75.9625 37.945 77.6125 38.625 79.3125 C31.833042 88.242667 24.16502986 93.87249147 13.30078125 96.9765625 C-2.19934946 98.92256431 -16.42137974 97.81669981 -29.19140625 88.15234375 C-35.87063149 82.52458867 -39.1288097 76.37041918 -42.375 68.3125 C-42.85839844 67.26835938 -42.85839844 67.26835938 -43.3515625 66.203125 C-47.92196176 55.18290997 -46.17412231 40.29411393 -42.375 29.3125 C-37.02804759 16.81962054 -28.81914443 7.92792018 -16.375 2.3125 C-10.93820883 0.49524578 -5.70834313 -0.04569808 0 0 Z " transform="translate(545.375,482.6875)" style="fill: #203F36;"/><path d="M0 0 C7.83106721 6.26485377 12.60978716 12.64186148 15.8125 22.25 C15.8125 27.53 15.8125 32.81 15.8125 38.25 C-2.9975 38.25 -21.8075 38.25 -41.1875 38.25 C-40.05922307 51.7893232 -38.64835334 59.25412778 -29.796875 69.05859375 C-23.60686917 74.25708667 -17.95244078 75.95609014 -9.9375 75.8125 C-9.10992188 75.80734375 -8.28234375 75.8021875 -7.4296875 75.796875 C-1.13094082 75.61046349 3.91406631 74.23215359 9.5625 71.34375 C11.8125 70.25 11.8125 70.25 14.8125 70.25 C15.8025 71.735 15.8025 71.735 16.8125 73.25 C9.789934 82.30541405 0.37542478 89.49710981 -11.1875 91.25 C-14.5839251 91.4445536 -17.97358723 91.48082361 -21.375 91.5 C-22.27025391 91.520625 -23.16550781 91.54125 -24.08789062 91.5625 C-36.29868301 91.63303165 -46.72444387 87.338438 -55.875 79.25 C-65.89404439 68.54244308 -68.73920837 54.36355869 -68.49609375 40.19140625 C-67.37973924 25.93315689 -61.88071374 13.89263062 -51.5 4.0390625 C-37.32627377 -6.92642164 -15.74604815 -8.64488918 0 0 Z " transform="translate(968.1875,488.75)" style="fill: #2F323B;"/><path d="M0 0 C0.90427734 -0.020625 1.80855469 -0.04125 2.74023438 -0.0625 C13.03105852 -0.12134674 21.26669406 2.2499596 28.9375 9.25 C38.91407404 19.45858739 39.9375 29.1431728 39.9375 43.25 C20.7975 43.25 1.6575 43.25 -18.0625 43.25 C-15.81808204 60.88752105 -15.81808204 60.88752105 -5.9609375 74.8515625 C1.8363395 80.59523568 9.39106554 81.9599606 18.9375 81.25 C25.43340233 79.95272729 31.12974862 77.36897759 36.9375 74.25 C37.5975 74.91 38.2575 75.57 38.9375 76.25 C38.39035146 81.42109009 34.66991315 84.94922647 30.9375 88.25 C27.07723737 90.60331519 23.11288658 92.52263322 18.9375 94.25 C18.05578125 94.62640625 17.1740625 95.0028125 16.265625 95.390625 C4.98552799 98.30332611 -10.86374414 98.1628293 -21.0625 92.25 C-21.92746094 91.75242187 -22.79242187 91.25484375 -23.68359375 90.7421875 C-34.37482284 83.91123875 -40.894416 73.90280711 -43.67578125 61.51953125 C-45.65470719 44.78861196 -44.59972311 29.94069864 -34.0625 16.25 C-33.58425781 15.56164062 -33.10601563 14.87328125 -32.61328125 14.1640625 C-24.87264429 3.98619728 -12.27149138 0.06793905 0 0 Z " transform="translate(1035.0625,483.75)" style="fill: #2F323A;"/><path d="M0 0 C3.31289453 2.12365034 3.8840656 3.58263615 4.9375 7.375 C5.02919137 12.69309933 2.8768286 15.6847571 0 20 C1.16276938 22.73961662 1.16276938 22.73961662 4 25 C8.1099071 25.59269103 12.17469434 25.31737498 16.3125 25.125 C26.43518203 24.87567629 35.17951206 25.39896637 45 28 C46.81098406 28.40271209 48.62329844 28.79953997 50.4375 29.1875 C51.613125 29.455625 52.78875 29.72375 54 30 C54.41958984 29.03900391 54.41958984 29.03900391 54.84765625 28.05859375 C56 26 56 26 58.4375 25.0625 C61 25 61 25 62.875 26.125 C64 28 64 28 63.6875 30.6875 C63.3471875 31.8321875 63.3471875 31.8321875 63 33 C62.01 33.33 61.02 33.66 60 34 C60.29060303 34.61931396 60.58120605 35.23862793 60.88061523 35.87670898 C64.5591252 43.8295592 67.83745436 51.91943684 71.0625 60.0625 C71.8410585 62.02017794 72.62035172 63.97756217 73.39974976 65.93490601 C74.14413238 67.8073493 74.88485114 69.68124782 75.62548828 71.55517578 C76.48781545 73.71635454 77.3642855 75.87200047 78.26123047 78.01904297 C78.62748535 78.89834473 78.99374023 79.77764648 79.37109375 80.68359375 C79.68876709 81.4305249 80.00644043 82.17745605 80.33374023 82.94702148 C81 85 81 85 81 89 C80.01 89 79.02 89 78 89 C77.69819824 88.21987549 77.39639648 87.43975098 77.08544922 86.63598633 C75.93690126 83.67310042 74.78457712 80.71171612 73.62988281 77.7512207 C72.89627566 75.86714102 72.1668251 73.98144452 71.4375 72.09570312 C68.60026662 64.8300852 65.57550337 57.74492446 62.20361328 50.71362305 C61 48 61 48 60 44 C59.67 58.85 59.34 73.7 59 89 C58.01 89 57.02 89 56 89 C55.67 73.49 55.34 57.98 55 42 C48.46166818 58.21037375 48.46166818 58.21037375 42.125 74.5 C40.2557324 79.41597423 38.20774868 84.22682269 36 89 C35.01 89 34.02 89 33 89 C34.90249671 82.30343922 37.11974819 75.8336055 39.72265625 69.37890625 C40.06880478 68.51232895 40.41495331 67.64575165 40.77159119 66.75291443 C41.49643486 64.94129083 42.22339005 63.13051071 42.95239258 61.32055664 C44.06857227 58.54741347 45.17632026 55.7710058 46.28320312 52.99414062 C46.99169203 51.22636384 47.70065921 49.45877866 48.41015625 47.69140625 C48.74040298 46.86330948 49.07064972 46.03521271 49.41090393 45.18202209 C49.72140182 44.41369553 50.03189972 43.64536896 50.35180664 42.85375977 C50.62255508 42.17998795 50.89330353 41.50621613 51.17225647 40.81202698 C52 39 52 39 54 36 C53.41734375 36.03480469 52.8346875 36.06960938 52.234375 36.10546875 C47.258233 36.26977533 43.04666388 35.87323845 38.25 34.5 C31.61522003 32.70612029 24.8259678 31.91773045 18 33 C15.29820586 34.93297646 15.29820586 34.93297646 13 37 C8.89988147 37.50205533 6.57038924 36.91956411 3 35 C2.74699712 43.88932347 3.45944066 52.631822 4.22543335 61.47601318 C5.67621944 78.3154871 6.62037073 95.09915671 7 112 C7.80824219 111.94199219 8.61648438 111.88398438 9.44921875 111.82421875 C11.05216797 111.75654297 11.05216797 111.75654297 12.6875 111.6875 C13.74324219 111.62949219 14.79898438 111.57148438 15.88671875 111.51171875 C19 112 19 112 24 117 C5.85 117 -12.3 117 -31 117 C-29 113 -29 113 -25.8125 111.75 C-22.088569 111.01742341 -18.78098758 110.94566245 -15 111 C-14.98541748 110.42709229 -14.97083496 109.85418457 -14.95581055 109.26391602 C-14.48389422 92.11984616 -13.35031324 75.06274312 -12.01635742 57.96704102 C-11.94991028 57.1032634 -11.88346313 56.23948578 -11.81500244 55.34953308 C-11.69010441 53.73050749 -11.56258303 52.11168104 -11.43182373 50.49311829 C-11.05797877 45.64634353 -10.94526503 40.86142955 -11 36 C-11.66386719 36.11859375 -12.32773437 36.2371875 -13.01171875 36.359375 C-13.89472656 36.48828125 -14.77773438 36.6171875 -15.6875 36.75 C-16.55761719 36.88921875 -17.42773438 37.0284375 -18.32421875 37.171875 C-21 37 -21 37 -23.39453125 35.04296875 C-26.77704026 32.39071655 -28.74446093 32.49488021 -33 32.5625 C-33.65427979 32.5728125 -34.30855957 32.583125 -34.98266602 32.59375 C-40.48190708 32.77442322 -45.60813998 33.83709912 -50.90234375 35.34375 C-54.7114658 36.15072668 -58.11102057 36.10068555 -62 36 C-61.67837891 36.79881592 -61.35675781 37.59763184 -61.02539062 38.4206543 C-50.1890063 65.35896276 -50.1890063 65.35896276 -45.25 78.25 C-44.91548828 79.11713623 -44.58097656 79.98427246 -44.23632812 80.87768555 C-42 86.75766549 -42 86.75766549 -42 89 C-42.99 89 -43.98 89 -45 89 C-48.38938745 81.23119783 -51.64016822 73.45101659 -54.6328125 65.51953125 C-55.67692886 62.83167741 -56.75297697 60.17045174 -57.8671875 57.51171875 C-58.18888916 56.7431958 -58.51059082 55.97467285 -58.84204102 55.18286133 C-59.47859834 53.66905595 -60.1195662 52.15709605 -60.76538086 50.6472168 C-62.04028196 47.61273266 -63 45.32642543 -63 42 C-63.66 42 -64.32 42 -65 42 C-65 57.51 -65 73.02 -65 89 C-65.99 89 -66.98 89 -68 89 C-68.33 74.15 -68.66 59.3 -69 44 C-72.26435422 52.16088554 -75.49826727 60.29877315 -78.6328125 68.50390625 C-81.32056771 75.3768803 -84.16807942 82.18543607 -87 89 C-87.99 89 -88.98 89 -90 89 C-89.36923775 83.58781043 -87.5803916 78.9824936 -85.54296875 73.98046875 C-85.19873367 73.1224617 -84.8544986 72.26445465 -84.49983215 71.38044739 C-83.77215309 69.56979912 -83.04159795 67.76030438 -82.30834961 65.9519043 C-81.1963162 63.20924381 -80.09247415 60.46340598 -78.99023438 57.71679688 C-78.27912402 55.95032826 -77.56755024 54.18404612 -76.85546875 52.41796875 C-76.52927048 51.60829147 -76.2030722 50.7986142 -75.86698914 49.96440125 C-73.68723432 44.59222289 -71.38582291 39.28380438 -69 34 C-70.485 33.505 -70.485 33.505 -72 33 C-72.125 30.125 -72.125 30.125 -72 27 C-71.34 26.34 -70.68 25.68 -70 25 C-67.5625 25.1875 -67.5625 25.1875 -65 26 C-64.55197021 26.52376221 -64.10394043 27.04752441 -63.64233398 27.5871582 C-62.07973426 29.24631682 -62.07973426 29.24631682 -59.77368164 28.97338867 C-58.91121826 28.7901001 -58.04875488 28.60681152 -57.16015625 28.41796875 C-56.18868652 28.2274292 -55.2172168 28.03688965 -54.21630859 27.84057617 C-53.17555176 27.62506104 -52.13479492 27.4095459 -51.0625 27.1875 C-42.9478695 25.66056658 -35.1407885 24.61017665 -26.875 24.6875 C-25.66082397 24.69849731 -25.66082397 24.69849731 -24.42211914 24.7097168 C-20.19437619 24.80509962 -16.16138875 25.18234694 -12 26 C-11.71125 25.401875 -11.4225 24.80375 -11.125 24.1875 C-10 22 -10 22 -8 19 C-8.9590625 18.0409375 -8.9590625 18.0409375 -9.9375 17.0625 C-12.59903884 13.11051808 -13.48185825 9.75835023 -13 5 C-9.48548014 -0.55520881 -6.0876659 -0.86966656 0 0 Z " transform="translate(772,291)" style="fill: #1F3F36;"/><path d="M0 0 C13.2 0 26.4 0 40 0 C40.99 3.96 41.98 7.92 43 12 C44.34830037 15.28391727 44.34830037 15.28391727 45.9375 17.875 C46.71673828 19.21304687 46.71673828 19.21304687 47.51171875 20.578125 C48.00285156 21.37734375 48.49398437 22.1765625 49 23 C49.39832031 23.65484375 49.79664063 24.3096875 50.20703125 24.984375 C52.10569586 28.01200583 52.10569586 28.01200583 55 30 C55.26941406 29.27554688 55.53882813 28.55109375 55.81640625 27.8046875 C56.9819829 25.04269398 58.34547832 22.66089204 59.9375 20.125 C64.02328839 13.40482251 66.05079643 7.79681427 68 0 C76.91 0 85.82 0 95 0 C95 1.98 95 3.96 95 6 C94.05640625 6.20302734 94.05640625 6.20302734 93.09375 6.41015625 C92.2378125 6.62542969 91.381875 6.84070313 90.5 7.0625 C89.24703125 7.35833984 89.24703125 7.35833984 87.96875 7.66015625 C79.80681618 11.34376585 74.67198297 18.63584318 69.625 25.75 C69.01011719 26.59949219 68.39523437 27.44898438 67.76171875 28.32421875 C63.20610088 33.66209666 63.20610088 33.66209666 61.1171875 39.7578125 C62.40653464 43.03252604 64.24089801 45.91897275 66.125 48.875 C66.55586914 49.5553833 66.98673828 50.2357666 67.43066406 50.93676758 C71.45681007 57.23968655 75.58318566 63.47689873 79.75 69.6875 C80.37535645 70.63157715 81.00071289 71.5756543 81.64501953 72.54833984 C87.57657924 81.51528623 87.57657924 81.51528623 96.875 86.3125 C97.90625 86.539375 98.9375 86.76625 100 87 C100 88.98 100 90.96 100 93 C87.79 93 75.58 93 63 93 C61.02 89.04 59.04 85.08 57 81 C55.32780076 78.16668913 53.65136818 75.38761676 51.875 72.625 C51.45863281 71.96628906 51.04226563 71.30757812 50.61328125 70.62890625 C48.69091126 67.59770843 46.73112347 64.60457111 44.6953125 61.6484375 C43 59 43 59 43 57 C32.8150399 66.53864972 29.27393113 79.90427548 26 93 C16.76 93 7.52 93 -2 93 C-2 91.02 -2 89.04 -2 87 C-0.82244141 86.5978125 -0.82244141 86.5978125 0.37890625 86.1875 C7.91348954 83.37705421 12.38134187 80.55849455 17 74 C17.53625 73.2471875 18.0725 72.494375 18.625 71.71875 C19.77140021 70.08406822 20.90512415 68.44043804 22.02734375 66.7890625 C23.51537098 64.68519825 25.02939771 62.66458621 26.62890625 60.6484375 C27.3098938 59.78738403 27.3098938 59.78738403 28.00463867 58.90893555 C28.8996642 57.78461255 29.80189719 56.66597926 30.7121582 55.55395508 C34.19109065 51.24561942 34.19109065 51.24561942 35 46 C33.52729489 42.996625 31.6294266 40.34144389 29.6875 37.625 C28.57367109 36.01991115 27.46039882 34.4144359 26.34765625 32.80859375 C25.78449707 32.00534668 25.22133789 31.20209961 24.64111328 30.37451172 C23.11155041 28.16140126 21.63638982 25.92417945 20.18359375 23.66015625 C19.75022705 22.98839355 19.31686035 22.31663086 18.87036133 21.62451172 C18.06602588 20.37346341 17.267267 19.11880405 16.4753418 17.85986328 C13.2295434 12.88292539 9.19252728 8.022356 3.125 6.6875 C2.09375 6.460625 1.0625 6.23375 0 6 C0 4.02 0 2.04 0 0 Z " transform="translate(586,485)" style="fill: #1E3D34;"/><path d="M0 0 C0 8.58 0 17.16 0 26 C8.25 26 16.5 26 25 26 C25 28.64 25 31.28 25 34 C16.75 34 8.5 34 0 34 C0.08589759 41.65047268 0.17984852 49.30076827 0.28752708 56.95096397 C0.33722757 60.50421713 0.38355709 64.05744427 0.421875 67.61083984 C0.46619853 71.70688596 0.52573719 75.80259371 0.5859375 79.8984375 C0.59748871 81.1592514 0.60903992 82.42006531 0.62094116 83.71908569 C0.42286405 95.91651798 0.42286405 95.91651798 5.1875 106.625 C8.88718203 108.43373344 10.91192383 108.62360484 15 108 C17.16158115 106.75729323 19.13001721 105.41925356 21.10546875 103.8984375 C21.73066406 103.60195313 22.35585937 103.30546875 23 103 C25.23828125 103.8515625 25.23828125 103.8515625 27 105 C24.12497479 111.58799746 17.55670532 116.6913429 10.94921875 119.33203125 C2.42264488 121.26321553 -8.73085451 122.1932317 -16.4375 117.5 C-21.29756072 113.42257331 -23.75331401 108.13118904 -25 102 C-25.08747283 99.79991562 -25.11766415 97.59732653 -25.11352539 95.39550781 C-25.11367142 94.74143448 -25.11381744 94.08736115 -25.1139679 93.41346741 C-25.11327341 91.25998574 -25.10550283 89.10659148 -25.09765625 86.953125 C-25.09579042 85.45668586 -25.09436729 83.96024612 -25.09336853 82.46380615 C-25.08955635 78.53141585 -25.07973717 74.59906268 -25.06866455 70.66668701 C-25.05842249 66.65149437 -25.05386492 62.6362957 -25.04882812 58.62109375 C-25.03811372 50.74737693 -25.02052745 42.87369736 -25 35 C-29.29 35 -33.58 35 -38 35 C-38 32.69 -38 30.38 -38 28 C-37.12859375 27.55011719 -36.2571875 27.10023438 -35.359375 26.63671875 C-23.12012961 20.1081991 -13.84263488 11.70273607 -5 1 C-4 0 -4 0 0 0 Z " transform="translate(1116,460)" style="fill: #2F323B;"/><path d="M0 0 C20.79 0 41.58 0 63 0 C55.15096494 14.1282631 55.15096494 14.1282631 45.765625 17.26953125 C40.62269025 18.26717523 35.60498287 18.44146471 30.375 18.5 C29.39740723 18.51844971 28.41981445 18.53689941 27.41259766 18.5559082 C18.04823541 18.4759859 10.6440613 15.6440613 4 9 C0 3.24299065 0 3.24299065 0 0 Z " transform="translate(798,383)" style="fill: #1D3D34;"/><path d="M0 0 C20.46 0 40.92 0 62 0 C56.71198626 9.51842473 53.31496621 14.56179537 43.11328125 17.4765625 C31.98081038 20.23395824 21.57314377 19.66582603 11 15 C6.32093205 11.9099113 2.30919377 8.19568598 0 3 C0 2.01 0 1.02 0 0 Z " transform="translate(675,383)" style="fill: #1E3E35;"/><path d="M0 0 C3.49483021 3.08367371 5.65619809 6.46859426 7.125 10.875 C7.22136449 13.76026611 7.26427947 16.61554778 7.25 19.5 C7.25580078 20.68335938 7.25580078 20.68335938 7.26171875 21.890625 C7.25165394 27.74834606 7.25165394 27.74834606 6.125 28.875 C3.7493148 28.9633967 1.40291326 28.99030305 -0.97265625 28.97265625 C-2.03594398 28.97053383 -2.03594398 28.97053383 -3.12071228 28.96836853 C-5.39301712 28.96275443 -7.66522475 28.95019963 -9.9375 28.9375 C-11.47460796 28.93248681 -13.01171745 28.92792359 -14.54882812 28.92382812 C-18.32425642 28.91278042 -22.09961171 28.89550641 -25.875 28.875 C-25.89543759 27.45969673 -25.90988129 26.04430626 -25.921875 24.62890625 C-25.93057617 23.8407251 -25.93927734 23.05254395 -25.94824219 22.24047852 C-25.72858595 15.1463141 -23.22028252 7.55927114 -18.41015625 2.26171875 C-12.9599759 -2.29078484 -6.49655262 -2.54212928 0 0 Z " transform="translate(1042.875,491.125)" style="fill: #FBFBFB;"/><path d="M0 0 C4.17930929 1.72623644 6.48705722 4.27391242 9 8 C10.83091296 12.52841461 11.27072376 16.37991604 11.25 21.25 C11.25773438 23.08304688 11.25773438 23.08304688 11.265625 24.953125 C11 28 11 28 9 30 C5.92724609 30.22705078 5.92724609 30.22705078 2.0234375 30.1953125 C1.33819 30.1924826 0.6529425 30.18965271 -0.05307007 30.18673706 C-2.24389027 30.17553281 -4.43430316 30.15042859 -6.625 30.125 C-8.1093691 30.11497048 -9.5937446 30.10584458 -11.078125 30.09765625 C-14.71888261 30.07559294 -18.35940156 30.04106176 -22 30 C-22.02038891 28.25655962 -22.03485961 26.51304945 -22.046875 24.76953125 C-22.05557617 23.79862549 -22.06427734 22.82771973 -22.07324219 21.82739258 C-21.86195399 13.67096403 -18.83672054 8.1068844 -13.375 2.125 C-8.82013256 -0.7428795 -5.24882769 -0.80007256 0 0 Z " transform="translate(949,490)" style="fill: #FBFBFB;"/><path d="M0 0 C3.98126854 3.41251589 5.80571577 7.18878632 6.9375 12.1875 C7.60379917 22.01541277 7.60379917 22.01541277 7.1875 25.875 C5.1875 27.875 5.1875 27.875 2.11474609 28.10205078 C0.82648926 28.09157715 -0.46176758 28.08110352 -1.7890625 28.0703125 C-2.47431 28.0674826 -3.1595575 28.06465271 -3.86557007 28.06173706 C-6.05639027 28.05053281 -8.24680316 28.02542859 -10.4375 28 C-11.9218691 27.98997048 -13.4062446 27.98084458 -14.890625 27.97265625 C-18.53138261 27.95059294 -22.17190156 27.91606176 -25.8125 27.875 C-25.84479984 25.97667608 -25.86770226 24.07819095 -25.88671875 22.1796875 C-25.90049561 21.12249512 -25.91427246 20.06530273 -25.9284668 18.97607422 C-25.65219741 11.58833989 -23.05691377 5.99745066 -17.8125 0.875 C-11.99130363 -3.22629744 -6.36104235 -2.54441694 0 0 Z " transform="translate(552.8125,491.125)" style="fill: #FAFAFA;"/><path d="M0 0 C0.33 0 0.66 0 1 0 C1 15.51 1 31.02 1 47 C1.99 47 2.98 47 4 47 C4 31.49 4 15.98 4 0 C4.66 0.33 5.32 0.66 6 1 C5.67 16.51 5.34 32.02 5 48 C14.57 48.33 24.14 48.66 34 49 C34 49.33 34 49.66 34 50 C13.54 50 -6.92 50 -28 50 C-28.33 50.66 -28.66 51.32 -29 52 C-29 51.01 -29 50.02 -29 49 C-27.865625 48.87625 -26.73125 48.7525 -25.5625 48.625 C-24.386875 48.41875 -23.21125 48.2125 -22 48 C-21.67 47.34 -21.34 46.68 -21 46 C-20.01 46.33 -19.02 46.66 -18 47 C-17.87020752 46.2680542 -17.74041504 45.5361084 -17.60668945 44.78198242 C-17.04144178 42.19003185 -16.2908551 39.94008721 -15.29296875 37.48828125 C-14.95330078 36.64716797 -14.61363281 35.80605469 -14.26367188 34.93945312 C-13.90853516 34.07255859 -13.55339844 33.20566406 -13.1875 32.3125 C-12.84396484 31.46494141 -12.50042969 30.61738281 -12.14648438 29.74414062 C-11.45035889 28.02668281 -10.75259449 26.30988841 -10.05322266 24.59375 C-8.995737 21.9895016 -7.95124437 19.3803735 -6.91015625 16.76953125 C-5.38812052 12.95789271 -3.83485772 9.161049 -2.25 5.375 C-1.82203125 4.35148437 -1.3940625 3.32796875 -0.953125 2.2734375 C-0.63859375 1.52320313 -0.3240625 0.77296875 0 0 Z " transform="translate(703,333)" style="fill: #EEF1F0;"/><path d="M0 0 C0 15.84 0 31.68 0 48 C3.42882941 49.14294314 6.24082838 49.20964472 9.85546875 49.31640625 C10.51710526 49.33718735 11.17874176 49.35796844 11.86042786 49.37937927 C13.96934852 49.44464727 16.07839135 49.50365344 18.1875 49.5625 C19.61915315 49.60570689 21.05079404 49.64932188 22.48242188 49.69335938 C25.98815154 49.80030506 29.49401786 49.90163641 33 50 C33 50.33 33 50.66 33 51 C12.21 51 -8.58 51 -30 51 C-30 50.67 -30 50.34 -30 50 C-28.906875 49.87625 -27.81375 49.7525 -26.6875 49.625 C-22.92618198 49.24535199 -22.92618198 49.24535199 -20 47 C-18.77998169 44.46543412 -17.70663737 41.98873344 -16.6875 39.375 C-16.38408691 38.61735352 -16.08067383 37.85970703 -15.76806641 37.07910156 C-12.97609537 30.06203509 -10.33020702 22.98976259 -7.70849609 15.90771484 C-6.5494923 12.78695135 -5.37163842 9.67383219 -4.1875 6.5625 C-3.78917969 5.51191406 -3.39085937 4.46132813 -2.98046875 3.37890625 C-1.58784893 0 -1.58784893 0 0 0 Z " transform="translate(828,332)" style="fill: #F1F3F3;"/><path d="M0 0 C3.44871354 0.62138983 5.294996 1.8546413 7.6015625 4.46875 C9.32835253 7.92233006 8.96399261 11.68548834 8.6015625 15.46875 C7.04885052 19.53537662 6.23876848 21.04394602 2.6015625 23.46875 C-1.14021657 24.07114168 -4.65563206 24.0643205 -8.3984375 23.46875 C-12.17747325 20.72709661 -13.06755496 19.34560475 -13.86328125 14.83203125 C-14.1072873 10.4696791 -14.01550178 6.5279407 -11.5859375 2.78125 C-7.54425589 -0.15095038 -4.89814839 -0.26405113 0 0 Z " transform="translate(460.3984375,637.53125)" style="fill: #33363F;"/><path d="M0 0 C3.75274969 0.77196202 5.41157077 2.46916783 7.6015625 5.53515625 C9.20036835 8.73276794 8.97010569 12.05662578 8.6015625 15.53515625 C7.03720962 19.55777795 6.21432587 21.12664734 2.6015625 23.53515625 C-2.32116415 24.18149899 -6.89624813 24.60814866 -11.0234375 21.66015625 C-14.16275719 16.80848036 -14.06027046 12.20459283 -13.3984375 6.53515625 C-11.14654843 0.18892341 -6.03214469 -0.31705343 0 0 Z " transform="translate(778.3984375,637.46484375)" style="fill: #373B44;"/><path d="M0 0 C2.93423195 1.79646854 4.47205355 2.9441071 6 6 C6.51124099 11.20460087 6.86132441 15.56445931 4.125 20.125 C0.37353273 23.43511818 -2.64819791 23.39063802 -7.515625 23.35546875 C-10 23 -10 23 -13.0625 20.6875 C-16.15786499 16.39392921 -16.73403854 12.18720565 -16 7 C-11.9679265 -0.39213475 -8.01831167 -0.94555562 0 0 Z " transform="translate(887,638)" style="fill: #34373F;"/><path d="M0 0 C2.60546875 0.49609375 2.60546875 0.49609375 5.79296875 2.24609375 C8.59246066 7.26587235 8.50585494 11.88948733 7.60546875 17.49609375 C6.41853438 20.85803874 5.71391728 21.30189479 2.60546875 23.49609375 C-1.18966315 24.20347041 -4.5988488 24.19791485 -8.39453125 23.49609375 C-11.05016927 21.59920945 -11.96695652 20.3512432 -13.39453125 17.49609375 C-13.96700857 12.49100633 -14.47665442 7.16620336 -11.58203125 2.80859375 C-7.55192978 -0.11520535 -4.89393719 -0.32362068 0 0 Z " transform="translate(1013.39453125,637.50390625)" style="fill: #363941;"/><path d="M0 0 C2.0625 -0.061875 4.125 -0.12375 6.25 -0.1875 C7.99023438 -0.23970703 7.99023438 -0.23970703 9.765625 -0.29296875 C13.26105456 0.02364625 14.64160699 0.42825604 17 3 C17.72720693 6.36916972 17.55460305 9.89079391 16 13 C15.34 13 14.68 13 14 13 C14.28875 13.55429687 14.5775 14.10859375 14.875 14.6796875 C15.431875 15.76636719 15.431875 15.76636719 16 16.875 C16.37125 17.59429688 16.7425 18.31359375 17.125 19.0546875 C18 21 18 21 18 23 C15.75 23.375 15.75 23.375 13 23 C9 18.02702703 9 18.02702703 9 15 C7.68 15 6.36 15 5 15 C5 17.64 5 20.28 5 23 C3.35 23 1.7 23 0 23 C0 15.41 0 7.82 0 0 Z " transform="translate(793,638)" style="fill: #40434B;"/><path d="M0 0 C2.0625 -0.061875 4.125 -0.12375 6.25 -0.1875 C7.99023438 -0.23970703 7.99023438 -0.23970703 9.765625 -0.29296875 C13.26207088 0.0237383 14.63087113 0.4406491 17 3 C17.75 9.75 17.75 9.75 15.5 13.5 C15.005 13.995 14.51 14.49 14 15 C14.66 15.94875 15.32 16.8975 16 17.875 C18 21 18 21 18 23 C15.8125 23.5 15.8125 23.5 13 23 C11.49690488 21.04115592 10.35900374 19.03206416 9.2109375 16.84765625 C8.06038961 14.67562123 8.06038961 14.67562123 5 14 C5 16.97 5 19.94 5 23 C3.35 23 1.7 23 0 23 C0 15.41 0 7.82 0 0 Z " transform="translate(899,638)" style="fill: #33353E;"/><path d="M0 0 C1.98 0 3.96 0 6 0 C7.81896996 2.21439822 9.05036585 4.02082091 10.375 6.5 C10.90673828 7.43005859 10.90673828 7.43005859 11.44921875 8.37890625 C12.31961604 9.90798257 13.16255124 11.45263275 14 13 C14.33 8.71 14.66 4.42 15 0 C16.65 0 18.3 0 20 0 C20 7.59 20 15.18 20 23 C18.02 23 16.04 23 14 23 C12.18103004 20.78560178 10.94963415 18.97917909 9.625 16.5 C9.27050781 15.87996094 8.91601562 15.25992188 8.55078125 14.62109375 C7.68038396 13.09201743 6.83744876 11.54736725 6 10 C5.67 14.29 5.34 18.58 5 23 C3.35 23 1.7 23 0 23 C0 15.41 0 7.82 0 0 Z " transform="translate(1051,638)" style="fill: #3F424A;"/><path d="M0 0 C1.98 0 3.96 0 6 0 C8.64 4.62 11.28 9.24 14 14 C14.33 9.38 14.66 4.76 15 0 C16.65 0 18.3 0 20 0 C20 7.59 20 15.18 20 23 C18.02 23 16.04 23 14 23 C12.18103004 20.78560178 10.94963415 18.97917909 9.625 16.5 C9.27050781 15.87996094 8.91601562 15.25992188 8.55078125 14.62109375 C7.68038396 13.09201743 6.83744876 11.54736725 6 10 C5.67 14.29 5.34 18.58 5 23 C3.35 23 1.7 23 0 23 C0 15.41 0 7.82 0 0 Z " transform="translate(512,638)" style="fill: #393C45;"/><path d="M0 0 C1.98 0 3.96 0 6 0 C10.04100469 7.33367517 12.47477744 15.05175851 15 23 C13.02 23 11.04 23 9 23 C8.505 20.525 8.505 20.525 8 18 C4.7 18 1.4 18 -2 18 C-2.33 19.65 -2.66 21.3 -3 23 C-4.65 23 -6.3 23 -8 23 C-5.47191206 15.28267891 -2.74972528 7.64054098 0 0 Z " transform="translate(726,638)" style="fill: #353943;"/><path d="M0 0 C1.18851563 0.00902344 2.37703125 0.01804687 3.6015625 0.02734375 C4.51679687 0.03894531 5.43203125 0.05054688 6.375 0.0625 C6.375 1.3825 6.375 2.7025 6.375 4.0625 C5.59253906 4.12308594 4.81007813 4.18367187 4.00390625 4.24609375 C2.48603516 4.37177734 2.48603516 4.37177734 0.9375 4.5 C-0.07183594 4.58121094 -1.08117187 4.66242187 -2.12109375 4.74609375 C-4.56140779 4.79461468 -4.56140779 4.79461468 -5.625 6.0625 C-5.72351171 7.89365883 -5.75472629 9.72869933 -5.75 11.5625 C-5.75257813 12.5628125 -5.75515625 13.563125 -5.7578125 14.59375 C-5.90370382 17.00649622 -5.90370382 17.00649622 -4.625 18.0625 C-2.29682036 18.43010731 0.0368385 18.76491581 2.375 19.0625 C2.375 17.4125 2.375 15.7625 2.375 14.0625 C1.055 14.0625 -0.265 14.0625 -1.625 14.0625 C-1.625 12.7425 -1.625 11.4225 -1.625 10.0625 C1.345 10.0625 4.315 10.0625 7.375 10.0625 C7.375 14.0225 7.375 17.9825 7.375 22.0625 C2.43527395 23.70907535 -2.4812749 23.76265665 -7.625 23.0625 C-10.42247686 21.60620032 -11.57020795 20.01125567 -12.625 17.0625 C-13.48765759 12.17146891 -13.47822119 7.77249733 -10.75 3.5 C-7.31055961 -0.44524045 -5.0943046 -0.04994416 0 0 Z " transform="translate(550.625,637.9375)" style="fill: #41454D;"/><path d="M0 0 C1.98 0 3.96 0 6 0 C6.32613281 0.78503906 6.65226563 1.57007813 6.98828125 2.37890625 C7.64376953 3.95478516 7.64376953 3.95478516 8.3125 5.5625 C8.993125 7.20412109 8.993125 7.20412109 9.6875 8.87890625 C10.6940729 11.27251264 11.73714717 13.63732576 12.8125 16 C14 19 14 19 14 23 C12.35 23 10.7 23 9 23 C8.67 21.35 8.34 19.7 8 18 C6.54052295 18.06006078 5.08220728 18.1488689 3.625 18.25 C2.81289063 18.29640625 2.00078125 18.3428125 1.1640625 18.390625 C-1.18838927 18.7922092 -1.18838927 18.7922092 -2.2890625 21.046875 C-2.52367187 21.69140625 -2.75828125 22.3359375 -3 23 C-4.32 23 -5.64 23 -7 23 C-6.42389687 17.45044957 -4.97901452 12.73970503 -2.9375 7.5625 C-2.65583984 6.83095703 -2.37417969 6.09941406 -2.08398438 5.34570312 C-1.39586753 3.56126454 -0.69885394 1.78026095 0 0 Z " transform="translate(606,638)" style="fill: #31343D;"/><path d="M0 0 C1.98 0 3.96 0 6 0 C7.3417678 3.26743656 8.67194359 6.53946908 10 9.8125 C10.3815625 10.74126953 10.763125 11.67003906 11.15625 12.62695312 C11.5171875 13.51962891 11.878125 14.41230469 12.25 15.33203125 C12.58515625 16.15421143 12.9203125 16.9763916 13.265625 17.82348633 C14 20 14 20 14 23 C12.35 23 10.7 23 9 23 C8.505 20.525 8.505 20.525 8 18 C4.7 18 1.4 18 -2 18 C-2.33 19.65 -2.66 21.3 -3 23 C-4.65 23 -6.3 23 -8 23 C-7.26905294 17.94514073 -5.31619096 13.40096821 -3.4375 8.6875 C-3.10814453 7.85154297 -2.77878906 7.01558594 -2.43945312 6.15429688 C-1.63001123 4.10136454 -0.81676543 2.05002714 0 0 Z " transform="translate(940,638)" style="fill: #363943;"/><path d="M0 0 C1.90845703 0.04060547 1.90845703 0.04060547 3.85546875 0.08203125 C5.31919922 0.13423828 5.31919922 0.13423828 6.8125 0.1875 C6.8125 1.5075 6.8125 2.8275 6.8125 4.1875 C1.3675 4.6825 1.3675 4.6825 -4.1875 5.1875 C-4.1875 6.1775 -4.1875 7.1675 -4.1875 8.1875 C-3.26517578 8.35185547 -3.26517578 8.35185547 -2.32421875 8.51953125 C-1.51597656 8.67808594 -0.70773437 8.83664062 0.125 9 C0.92550781 9.15082031 1.72601562 9.30164063 2.55078125 9.45703125 C5.09801472 10.27971287 6.19263892 11.07552923 7.8125 13.1875 C8.33763965 16.71343763 8.35063407 18.44372661 6.23828125 21.36328125 C2.91076528 23.86561613 0.67429063 23.58978854 -3.4375 23.4375 C-4.70078125 23.40140625 -5.9640625 23.3653125 -7.265625 23.328125 C-8.71195313 23.25851562 -8.71195313 23.25851562 -10.1875 23.1875 C-10.1875 21.8675 -10.1875 20.5475 -10.1875 19.1875 C-6.2275 18.8575 -2.2675 18.5275 1.8125 18.1875 C1.8125 17.1975 1.8125 16.2075 1.8125 15.1875 C1.11382813 15.00574219 0.41515625 14.82398438 -0.3046875 14.63671875 C-1.21476562 14.38535156 -2.12484375 14.13398437 -3.0625 13.875 C-3.96742187 13.63136719 -4.87234375 13.38773438 -5.8046875 13.13671875 C-8.1875 12.1875 -8.1875 12.1875 -10.1875 9.1875 C-10.72486027 4.02884144 -10.72486027 4.02884144 -9.1171875 1.51171875 C-6.14847532 -0.52551491 -3.54196167 -0.09748518 0 0 Z " transform="translate(1132.1875,637.8125)" style="fill: #3B3E47;"/><path d="M0 0 C1.76923828 0.04060547 1.76923828 0.04060547 3.57421875 0.08203125 C4.47785156 0.11683594 5.38148438 0.15164063 6.3125 0.1875 C6.3125 1.5075 6.3125 2.8275 6.3125 4.1875 C2.6825 4.1875 -0.9475 4.1875 -4.6875 4.1875 C-4.3575 5.5075 -4.0275 6.8275 -3.6875 8.1875 C-2.76517578 8.35185547 -2.76517578 8.35185547 -1.82421875 8.51953125 C-1.01597656 8.67808594 -0.20773437 8.83664062 0.625 9 C1.42550781 9.15082031 2.22601562 9.30164063 3.05078125 9.45703125 C5.59801472 10.27971287 6.69263892 11.07552923 8.3125 13.1875 C8.83763965 16.71343763 8.85063407 18.44372661 6.73828125 21.36328125 C3.41076528 23.86561613 1.17429063 23.58978854 -2.9375 23.4375 C-4.20078125 23.40140625 -5.4640625 23.3653125 -6.765625 23.328125 C-8.21195313 23.25851562 -8.21195313 23.25851562 -9.6875 23.1875 C-9.6875 21.8675 -9.6875 20.5475 -9.6875 19.1875 C-5.7275 18.8575 -1.7675 18.5275 2.3125 18.1875 C2.3125 17.1975 2.3125 16.2075 2.3125 15.1875 C1.61382813 14.99414062 0.91515625 14.80078125 0.1953125 14.6015625 C-0.71476563 14.34117187 -1.62484375 14.08078125 -2.5625 13.8125 C-3.46742188 13.55726563 -4.37234375 13.30203125 -5.3046875 13.0390625 C-7.6875 12.1875 -7.6875 12.1875 -9.6875 10.1875 C-10.24512712 4.05360169 -10.24512712 4.05360169 -8.5859375 1.4765625 C-5.74567753 -0.45200909 -3.38462405 -0.10053339 0 0 Z " transform="translate(825.6875,637.8125)" style="fill: #363842;"/><path d="M0 0 C1.32 0 2.64 0 4 0 C4.06058594 1.21558594 4.12117187 2.43117188 4.18359375 3.68359375 C4.26798332 5.26824228 4.3526321 6.85287702 4.4375 8.4375 C4.47681641 9.23994141 4.51613281 10.04238281 4.55664062 10.86914062 C4.4054296 14.75239561 4.4054296 14.75239561 6 18 C8.31 18 10.62 18 13 18 C13.495 9.09 13.495 9.09 14 0 C15.65 0 17.3 0 19 0 C19.11644156 3.08301416 19.18732432 6.16546123 19.25 9.25 C19.30027344 10.55904297 19.30027344 10.55904297 19.3515625 11.89453125 C19.44923939 18.29236755 19.44923939 18.29236755 17.36328125 21.578125 C14.37812472 23.37415306 12.40966462 23.53442047 8.9375 23.5 C7.37322266 23.51546875 7.37322266 23.51546875 5.77734375 23.53125 C3 23 3 23 1.140625 21.578125 C-0.64702651 17.53754281 -0.31309777 13.61049697 -0.1875 9.25 C-0.17396484 8.36183594 -0.16042969 7.47367188 -0.14648438 6.55859375 C-0.11121309 4.37177422 -0.06192752 2.18620034 0 0 Z " transform="translate(672,638)" style="fill: #3F424B;"/><path d="M0 0 C4.95 0 9.9 0 15 0 C15 1.32 15 2.64 15 4 C11.7 4 8.4 4 5 4 C5 5.65 5 7.3 5 9 C7.97 9 10.94 9 14 9 C14 10.32 14 11.64 14 13 C11.03 13 8.06 13 5 13 C5 14.98 5 16.96 5 19 C8.63 19 12.26 19 16 19 C16 20.32 16 21.64 16 23 C10.72 23 5.44 23 0 23 C0 15.41 0 7.82 0 0 Z " transform="translate(1078,638)" style="fill: #393D46;"/><path d="M0 0 C3.53677664 -0.32152515 5.3962104 -0.4131192 8.375 1.625 C10.45406883 4.66363906 10.46155369 6.38449608 10 10 C9.01 11.485 9.01 11.485 8 13 C7.34 13 6.68 13 6 13 C7.65 16.3 9.3 19.6 11 23 C8.3125 23.5 8.3125 23.5 5 23 C3.39809638 21.02041179 2.25347296 19.00666808 1.078125 16.75 C0.72234375 16.1725 0.3665625 15.595 0 15 C-0.66 15 -1.32 15 -2 15 C-2.33 17.64 -2.66 20.28 -3 23 C-4.32 23 -5.64 23 -7 23 C-7 15.74 -7 8.48 -7 1 C-5.35 1 -3.7 1 -2 1 C-1.67 1.66 -1.34 2.32 -1 3 C-1.66 3 -2.32 3 -3 3 C-3 5.31 -3 7.62 -3 10 C0.465 9.505 0.465 9.505 4 9 C4 6.69 4 4.38 4 2 C2.68 1.34 1.36 0.68 0 0 Z " transform="translate(1035,638)" style="fill: #353841;"/><path d="M0 0 C1.76923828 0.04060547 1.76923828 0.04060547 3.57421875 0.08203125 C4.47785156 0.11683594 5.38148438 0.15164063 6.3125 0.1875 C6.3125 1.5075 6.3125 2.8275 6.3125 4.1875 C0.8675 4.6825 0.8675 4.6825 -4.6875 5.1875 C-4.6875 6.1775 -4.6875 7.1675 -4.6875 8.1875 C-3.90503906 8.39246094 -3.12257813 8.59742188 -2.31640625 8.80859375 C-1.30449219 9.07800781 -0.29257812 9.34742188 0.75 9.625 C2.26400391 10.02525391 2.26400391 10.02525391 3.80859375 10.43359375 C6.3125 11.1875 6.3125 11.1875 7.3125 12.1875 C7.77990995 17.98338336 7.77990995 17.98338336 7.3125 20.1875 C4.95594052 22.76300633 3.57457234 23.16376156 0.078125 23.48046875 C-1.08203125 23.44566406 -2.2421875 23.41085937 -3.4375 23.375 C-4.60796875 23.34792969 -5.7784375 23.32085938 -6.984375 23.29296875 C-7.87640625 23.25816406 -8.7684375 23.22335937 -9.6875 23.1875 C-9.6875 21.8675 -9.6875 20.5475 -9.6875 19.1875 C-6.0575 18.8575 -2.4275 18.5275 1.3125 18.1875 C1.3125 17.1975 1.3125 16.2075 1.3125 15.1875 C0.60222656 14.98253906 -0.10804688 14.77757812 -0.83984375 14.56640625 C-1.75894531 14.29699219 -2.67804688 14.02757812 -3.625 13.75 C-4.54152344 13.48316406 -5.45804687 13.21632813 -6.40234375 12.94140625 C-8.6875 12.1875 -8.6875 12.1875 -9.6875 11.1875 C-10.15558954 3.93211218 -10.15558954 3.93211218 -8.58984375 1.44140625 C-5.74130178 -0.43617481 -3.3656368 -0.09996941 0 0 Z " transform="translate(484.6875,637.8125)" style="fill: #3C3F47;"/><path d="M0 0 C2.59094218 3.13293699 4.03051685 6.20317333 5.48828125 9.98828125 C5.94485107 11.16326172 6.4014209 12.33824219 6.87182617 13.54882812 C7.35226865 14.803302 7.83248955 16.05786075 8.3125 17.3125 C9.04954387 19.22148542 9.78835333 21.12978145 10.52723694 23.03805542 C11.24760157 24.89939736 11.96609949 26.76146139 12.68457031 28.62353516 C13.78247265 31.44164751 14.90321669 34.24645579 16.0546875 37.04296875 C16.33787842 37.73156982 16.62106934 38.4201709 16.9128418 39.12963867 C17.6291028 40.85900379 18.35139505 42.5858676 19.07421875 44.3125 C20 47 20 47 20 51 C19.01 51 18.02 51 17 51 C16.69819824 50.21987549 16.39639648 49.43975098 16.08544922 48.63598633 C14.93690126 45.67310042 13.78457712 42.71171612 12.62988281 39.7512207 C11.89627566 37.86714102 11.1668251 35.98144452 10.4375 34.09570312 C7.60026662 26.8300852 4.57550337 19.74492446 1.20361328 12.71362305 C0 10 0 10 -1 6 C-1.33 20.85 -1.66 35.7 -2 51 C-2.33 51 -2.66 51 -3 51 C-3.07596188 44.219067 -3.1285625 37.4382434 -3.16479492 30.65698242 C-3.17989676 28.34932352 -3.20037969 26.04169339 -3.22631836 23.73413086 C-3.26263975 20.42033801 -3.27971236 17.10692408 -3.29296875 13.79296875 C-3.30845261 12.7585112 -3.32393646 11.72405365 -3.33988953 10.6582489 C-3.34011612 9.6974794 -3.34034271 8.7367099 -3.34057617 7.74682617 C-3.34723801 6.90077316 -3.35389984 6.05472015 -3.36076355 5.18302917 C-2.92364455 2.53796284 -2.04559682 1.66463188 0 0 Z " transform="translate(833,329)" style="fill: #385750;"/><path d="M0 0 C0.66 0 1.32 0 2 0 C2 0.99 2 1.98 2 3 C2.66 3 3.32 3 4 3 C4 18.84 4 34.68 4 51 C3.67 51 3.34 51 3 51 C2.67 36.15 2.34 21.3 2 6 C-1.26435422 14.16088554 -4.49826727 22.29877315 -7.6328125 30.50390625 C-10.32056771 37.3768803 -13.16807942 44.18543607 -16 51 C-16.99 51 -17.98 51 -19 51 C-18.37070685 45.53531719 -16.53533207 40.88647055 -14.47265625 35.83984375 C-14.12367783 34.97235001 -13.7746994 34.10485626 -13.41514587 33.21107483 C-12.30326858 30.45088754 -11.18304091 27.69417995 -10.0625 24.9375 C-9.31259343 23.08030318 -8.56323867 21.22288345 -7.81445312 19.36523438 C-6.43969247 15.95685812 -5.06182878 12.54977606 -3.67993164 9.14428711 C-2.44452185 6.09965214 -1.21611287 3.05240865 0 0 Z " transform="translate(701,329)" style="fill: #48685E;"/><path d="M0 0 C1.09570312 0.00902344 2.19140625 0.01804687 3.3203125 0.02734375 C4.16335938 0.03894531 5.00640625 0.05054688 5.875 0.0625 C5.875 1.3825 5.875 2.7025 5.875 4.0625 C4.80958984 4.13597656 4.80958984 4.13597656 3.72265625 4.2109375 C2.80355469 4.28570313 1.88445313 4.36046875 0.9375 4.4375 C0.02097656 4.50710938 -0.89554688 4.57671875 -1.83984375 4.6484375 C-2.97099609 4.85339844 -2.97099609 4.85339844 -4.125 5.0625 C-5.37569801 7.56389602 -5.25802467 9.33642691 -5.25 12.125 C-5.25257813 13.02347656 -5.25515625 13.92195312 -5.2578125 14.84765625 C-5.37238223 17.03628893 -5.37238223 17.03628893 -4.125 18.0625 C-2.27608054 18.29613881 -0.42011969 18.47553635 1.4375 18.625 C2.44941406 18.70878906 3.46132813 18.79257812 4.50390625 18.87890625 C5.67759766 18.96978516 5.67759766 18.96978516 6.875 19.0625 C6.875 20.3825 6.875 21.7025 6.875 23.0625 C-5.02326518 23.8464267 -5.02326518 23.8464267 -9.375 20.75 C-12.21999895 16.38089446 -12.85063209 12.19030012 -12.125 7.0625 C-8.71004764 0.801754 -6.91047598 -0.0735157 0 0 Z " transform="translate(587.125,637.9375)" style="fill: #3C3F47;"/><path d="M0 0 C0 1.32 0 2.64 0 4 C-5.445 4.495 -5.445 4.495 -11 5 C-11.020625 6.77375 -11.04125 8.5475 -11.0625 10.375 C-11.07410156 11.37273438 -11.08570313 12.37046875 -11.09765625 13.3984375 C-11.18006602 15.98432453 -11.18006602 15.98432453 -10 18 C-7.41394668 18.4683265 -7.41394668 18.4683265 -4.4375 18.625 C-3.42558594 18.69976563 -2.41367187 18.77453125 -1.37109375 18.8515625 C-0.19740234 18.92503906 -0.19740234 18.92503906 1 19 C1 20.32 1 21.64 1 23 C-2.72358652 24.86179326 -6.76675132 24.34416242 -10.6875 23.25 C-13.40731657 21.77982888 -15.02639941 20.38952469 -17 18 C-18.03760536 12.86206448 -18.15838141 6.80319636 -15.25 2.25 C-10.36975598 -1.12863048 -5.75723632 -0.49583853 0 0 Z " transform="translate(664,638)" style="fill: #3C3F48;"/><path d="M0 0 C1.09570312 0.00902344 2.19140625 0.01804687 3.3203125 0.02734375 C4.16335938 0.03894531 5.00640625 0.05054688 5.875 0.0625 C5.875 1.3825 5.875 2.7025 5.875 4.0625 C5.17632812 4.11148438 4.47765625 4.16046875 3.7578125 4.2109375 C2.84773438 4.28570313 1.93765625 4.36046875 1 4.4375 C-0.35738281 4.54191406 -0.35738281 4.54191406 -1.7421875 4.6484375 C-4.30441903 4.85818132 -4.30441903 4.85818132 -6.125 7.0625 C-6.63466413 12.94586903 -6.63466413 12.94586903 -4.125 18.0625 C-1.69978506 18.64439266 -1.69978506 18.64439266 1 18.75 C2.36511719 18.84861328 2.36511719 18.84861328 3.7578125 18.94921875 C4.45648438 18.98660156 5.15515625 19.02398438 5.875 19.0625 C5.875 20.3825 5.875 21.7025 5.875 23.0625 C-5.05786835 23.6902245 -5.05786835 23.6902245 -9.3125 21.1875 C-12.70700024 17.2077411 -12.45129867 13.85567663 -12.41796875 8.76953125 C-12.02928228 5.17806825 -10.81053733 3.43209176 -8.125 1.0625 C-5.36047967 -0.31976016 -3.0788637 -0.03275387 0 0 Z " transform="translate(414.125,637.9375)" style="fill: #373A42;"/><path d="M0 0 C4.95 0 9.9 0 15 0 C15 1.32 15 2.64 15 4 C11.7 4 8.4 4 5 4 C5 5.65 5 7.3 5 9 C7.97 9 10.94 9 14 9 C14 10.32 14 11.64 14 13 C11.03 13 8.06 13 5 13 C5 16.3 5 19.6 5 23 C3.35 23 1.7 23 0 23 C0 15.41 0 7.82 0 0 Z " transform="translate(852,638)" style="fill: #383B44;"/><path d="M0 0 C2.8515625 -0.1796875 2.8515625 -0.1796875 6 0 C10 4.84210526 10 4.84210526 10 8 C12.00803829 6.18320345 13.12335991 4.75888745 14.375 2.3125 C14.91125 1.549375 15.4475 0.78625 16 0 C18.6875 -0.3125 18.6875 -0.3125 21 0 C19.81191348 3.34824382 18.26964728 6.22642747 16.4375 9.25 C13.78356233 13.89439093 13.25286154 17.68990773 13 23 C11.35 23 9.7 23 8 23 C8.00902344 22.42894531 8.01804687 21.85789062 8.02734375 21.26953125 C7.72389992 12.97100209 4.18215127 6.9666123 0 0 Z " transform="translate(1097,638)" style="fill: #343840;"/><path d="M0 0 C6.27 0 12.54 0 19 0 C19 1.32 19 2.64 19 4 C16.69 4 14.38 4 12 4 C12 10.27 12 16.54 12 23 C10.35 23 8.7 23 7 23 C7 16.73 7 10.46 7 4 C4.69 4 2.38 4 0 4 C0 2.68 0 1.36 0 0 Z " transform="translate(977,638)" style="fill: #353840;"/><path d="M0 0 C6.27 0 12.54 0 19 0 C19 1.32 19 2.64 19 4 C16.69 4 14.38 4 12 4 C12 10.27 12 16.54 12 23 C10.35 23 8.7 23 7 23 C7 16.73 7 10.46 7 4 C4.69 4 2.38 4 0 4 C0 2.68 0 1.36 0 0 Z " transform="translate(742,638)" style="fill: #353740;"/><path d="M0 0 C5.94 0 11.88 0 18 0 C18 1.32 18 2.64 18 4 C16.02 4 14.04 4 12 4 C12 10.27 12 16.54 12 23 C10.35 23 8.7 23 7 23 C7 16.73 7 10.46 7 4 C4.69 4 2.38 4 0 4 C0 2.68 0 1.36 0 0 Z " transform="translate(956,638)" style="fill: #363841;"/><path d="M0 0 C3.36875585 -0.36750064 5.87672462 -0.57975504 8.9375 1 C10.65824275 4.23904517 10.65162229 7.47438046 10 11 C8 14 8 14 6 16 C0.45574388 15.51789077 0.45574388 15.51789077 -1.375 13.4375 C-2.30487069 9.81100432 -2.23829476 6.75314247 -2 3 C-1.34 2.01 -0.68 1.02 0 0 Z " transform="translate(454,642)" style="fill: #EFEFF0;"/><path d="M0 0 C1.65 0 3.3 0 5 0 C5 6.27 5 12.54 5 19 C8.63 19 12.26 19 16 19 C16 20.32 16 21.64 16 23 C10.72 23 5.44 23 0 23 C0 15.41 0 7.82 0 0 Z " transform="translate(699,638)" style="fill: #3C3F47;"/><path d="M0 0 C1.65 0 3.3 0 5 0 C5 6.27 5 12.54 5 19 C8.63 19 12.26 19 16 19 C16 20.32 16 21.64 16 23 C10.72 23 5.44 23 0 23 C0 15.41 0 7.82 0 0 Z " transform="translate(626,638)" style="fill: #2F333B;"/><path d="M0 0 C1.65 0 3.3 0 5 0 C5 6.27 5 12.54 5 19 C8.63 19 12.26 19 16 19 C16 20.32 16 21.64 16 23 C10.72 23 5.44 23 0 23 C0 15.41 0 7.82 0 0 Z " transform="translate(427,638)" style="fill: #30343C;"/><path d="M0 0 C4.29 0 8.58 0 13 0 C13.33 0.66 13.66 1.32 14 2 C13.34 2 12.68 2 12 2 C12 2.66 12 3.32 12 4 C9.36 4 6.72 4 4 4 C4 6.31 4 8.62 4 11 C6.31 11 8.62 11 11 11 C10.01 11.33 9.02 11.66 8 12 C8 12.66 8 13.32 8 14 C7.01 14 6.02 14 5 14 C5 16.97 5 19.94 5 23 C3.35 23 1.7 23 0 23 C0 15.41 0 7.82 0 0 Z " transform="translate(793,638)" style="fill: #30333B;"/><path d="M0 0 C4.29 0 8.58 0 13 0 C13 0.33 13 0.66 13 1 C9.04 1 5.08 1 1 1 C1.33 2.65 1.66 4.3 2 6 C2.66 5.34 3.32 4.68 4 4 C6.68839385 3.73008094 9.29141936 3.91262643 12 4 C12.625 6.3125 12.625 6.3125 13 9 C12.01 10.485 12.01 10.485 11 12 C10.01 12 9.02 12 8 12 C8 12.66 8 13.32 8 14 C7.01 14 6.02 14 5 14 C5 16.97 5 19.94 5 23 C3.35 23 1.7 23 0 23 C0 15.41 0 7.82 0 0 Z " transform="translate(899,638)" style="fill: #353740;"/><path d="M0 0 C3.5 0.25 3.5 0.25 5.5 2.25 C5.765625 4.52734375 5.765625 4.52734375 5.75 7.1875 C5.75515625 8.06277344 5.7603125 8.93804688 5.765625 9.83984375 C5.5 12.25 5.5 12.25 3.5 15.25 C0 15.625 0 15.625 -3.5 15.25 C-5.66721782 11.99917327 -5.77221018 10.95767847 -5.75 7.1875 C-5.75515625 6.30964844 -5.7603125 5.43179688 -5.765625 4.52734375 C-5.29805146 0.51858826 -3.85998172 0.27571298 0 0 Z " transform="translate(1010.5,641.75)" style="fill: #F7F7F8;"/><path d="M0 0 C1.7325 0.1546875 1.7325 0.1546875 3.5 0.3125 C5.58133467 3.434502 5.7737822 4.24516989 5.75 7.8125 C5.75515625 8.5859375 5.7603125 9.359375 5.765625 10.15625 C5.5 12.3125 5.5 12.3125 3.5 15.3125 C0 15.625 0 15.625 -3.5 15.3125 C-5.5 13.3125 -5.5 13.3125 -5.765625 10.78125 C-5.76046875 9.8015625 -5.7553125 8.821875 -5.75 7.8125 C-5.75515625 6.8328125 -5.7603125 5.853125 -5.765625 4.84375 C-5.32914965 0.68439668 -4.04937438 0.36155128 0 0 Z " transform="translate(882.5,641.6875)" style="fill: #F6F6F7;"/><path d="M0 0 C3.5 -0.3125 3.5 -0.3125 7 0 C9 2 9 2 9.265625 4.53125 C9.26046875 5.5109375 9.2553125 6.490625 9.25 7.5 C9.25515625 8.4796875 9.2603125 9.459375 9.265625 10.46875 C9 13 9 13 7 15 C3.5 15.3125 3.5 15.3125 0 15 C-2.08133467 11.877998 -2.2737822 11.06733011 -2.25 7.5 C-2.25773438 6.33984375 -2.25773438 6.33984375 -2.265625 5.15625 C-2 3 -2 3 0 0 Z " transform="translate(772,642)" style="fill: #F6F6F7;"/><path d="M0 0 C0.33 0 0.66 0 1 0 C1 22.11 1 44.22 1 67 C0.01 67 -0.98 67 -2 67 C-2.28587627 44.57410622 -1.58119107 22.37006894 0 0 Z " transform="translate(765,335)" style="fill: #E5EBE9;"/><path d="M0 0 C1.98 0 3.96 0 6 0 C7.9375 2.3125 7.9375 2.3125 9 5 C8 8 8 8 6 9 C5.52998967 12.27555608 5.52998967 12.27555608 5.375 16.0625 C5.30023437 17.35285156 5.22546875 18.64320313 5.1484375 19.97265625 C5.09945312 20.97167969 5.05046875 21.97070312 5 23 C3.35 23 1.7 23 0 23 C0 15.41 0 7.82 0 0 Z " transform="translate(512,638)" style="fill: #3D3F47;"/><path d="M0 0 C0.33 0 0.66 0 1 0 C1.07347656 1.04800781 1.07347656 1.04800781 1.1484375 2.1171875 C1.22320313 3.02726562 1.29796875 3.93734375 1.375 4.875 C1.44460938 5.77992188 1.51421875 6.68484375 1.5859375 7.6171875 C1.79568132 10.17941903 1.79568132 10.17941903 4 12 C4.20254517 13.83499146 4.20254517 13.83499146 4.13525391 16.08251953 C4.11508209 16.92324005 4.09491028 17.76396057 4.0741272 18.63015747 C4.04193085 19.53853363 4.0097345 20.44690979 3.9765625 21.3828125 C3.95153656 22.31221649 3.92651062 23.24162048 3.90072632 24.19918823 C3.81839355 27.17482261 3.72185562 30.14980631 3.625 33.125 C3.566774 35.13929613 3.50947044 37.15361914 3.453125 39.16796875 C3.31279498 44.11235505 3.15972168 49.05620366 3 54 C2.67 54 2.34 54 2 54 C1.96261719 52.95199219 1.92523437 51.90398437 1.88671875 50.82421875 C1.82105485 49.44527695 1.75460765 48.06637229 1.6875 46.6875 C1.66494141 45.99720703 1.64238281 45.30691406 1.61914062 44.59570312 C1.55964535 40.66489145 1.55964535 40.66489145 -0.52514648 37.54907227 C-2 36 -2 36 -2.26464844 33.96972656 C-2.2134082 33.20112305 -2.16216797 32.43251953 -2.109375 31.640625 C-2.03481079 30.34741333 -2.03481079 30.34741333 -1.95874023 29.02807617 C-1.88985596 28.11131104 -1.82097168 27.1945459 -1.75 26.25 C-1.69207275 25.31583252 -1.63414551 24.38166504 -1.57446289 23.41918945 C-1.39738313 20.61162231 -1.19974808 17.80603282 -1 15 C-0.89819128 13.42588062 -0.7978046 11.85166826 -0.69921875 10.27734375 C-0.48216072 6.8503619 -0.24727007 3.42495359 0 0 Z " transform="translate(760,348)" style="fill: #26483E;"/><path d="M0 0 C1.98 0 3.96 0 6 0 C5.67 1.65 5.34 3.3 5 5 C4.01 5 3.02 5 2 5 C1.855625 6.093125 1.71125 7.18625 1.5625 8.3125 C1 12 1 12 0 15 C1.65 15 3.3 15 5 15 C5 15.66 5 16.32 5 17 C5.66 17.33 6.32 17.66 7 18 C4.03 18 1.06 18 -2 18 C-2.33 19.65 -2.66 21.3 -3 23 C-4.65 23 -6.3 23 -8 23 C-7.26905294 17.94514073 -5.31619096 13.40096821 -3.4375 8.6875 C-3.10814453 7.85154297 -2.77878906 7.01558594 -2.43945312 6.15429688 C-1.63001123 4.10136454 -0.81676543 2.05002714 0 0 Z " transform="translate(940,638)" style="fill: #30343E;"/><path d="M0 0 C-0.66 0 -1.32 0 -2 0 C-2 0.66 -2 1.32 -2 2 C-0.35 2 1.3 2 3 2 C3 2.33 3 2.66 3 3 C1.02 3.66 -0.96 4.32 -3 5 C-3 8.63 -3 12.26 -3 16 C-1.02 16.66 0.96 17.32 3 18 C0.61426621 19.89213369 -1.07175348 21.02391783 -4 22 C-8.19970516 18.01566433 -9.83149006 16.0558213 -10.3125 10.1875 C-10.27244057 5.8450576 -8.78385947 3.35700701 -6 0 C-3.50907189 -1.24546405 -2.58919267 -0.7767578 0 0 Z " transform="translate(881,639)" style="fill: #44474E;"/><path d="M0 0 C0.99 0.33 1.98 0.66 3 1 C2.83886719 1.55558594 2.67773438 2.11117187 2.51171875 2.68359375 C1.95565278 5.20074733 1.83192948 7.4861512 1.8125 10.0625 C1.79832031 10.91972656 1.78414062 11.77695312 1.76953125 12.66015625 C1.84153915 15.27198309 1.84153915 15.27198309 4 18 C5.31647119 18.69937532 6.65022151 19.36729133 8 20 C8.66 20.66 9.32 21.32 10 22 C1.8372093 22.62790698 1.8372093 22.62790698 -1.5 20.125 C-4.83121894 15.40577318 -4.62555522 10.63812104 -4 5 C-2 1.8125 -2 1.8125 0 0 Z " transform="translate(1004,639)" style="fill: #32353D;"/><path d="M0 0 C3.6773705 0.20429836 4.80084985 0.77932011 7.3125 3.5625 C9.32364597 7.65927883 9.75562963 10.52845054 9 15 C6.75 20.625 6.75 20.625 4 22 C3.01 21.01 2.02 20.02 1 19 C1.33 18.34 1.66 17.68 2 17 C2.07033769 15.12620395 2.0843022 13.24998898 2.0625 11.375 C2.04896484 9.87066406 2.04896484 9.87066406 2.03515625 8.3359375 C2.02355469 7.56507813 2.01195312 6.79421875 2 6 C0.02 5.34 -1.96 4.68 -4 4 C-2.68 3.67 -1.36 3.34 0 3 C0 2.01 0 1.02 0 0 Z " transform="translate(778,638)" style="fill: #3F424B;"/><path d="M0 0 C1.875 1.125 1.875 1.125 2.875 2.125 C3.25884374 5.57959363 3.36752905 7.43840713 1.30859375 10.30859375 C-2.02548503 12.79711162 -4.26524683 12.52721308 -8.375 12.375 C-9.63828125 12.33890625 -10.9015625 12.3028125 -12.203125 12.265625 C-13.64945313 12.19601562 -13.64945313 12.19601562 -15.125 12.125 C-15.125 10.805 -15.125 9.485 -15.125 8.125 C-9.185 7.63 -9.185 7.63 -3.125 7.125 C-3.125 6.135 -3.125 5.145 -3.125 4.125 C-4.445 3.465 -5.765 2.805 -7.125 2.125 C-6.465 2.125 -5.805 2.125 -5.125 2.125 C-5.125 1.465 -5.125 0.805 -5.125 0.125 C-2.125 -0.875 -2.125 -0.875 0 0 Z " transform="translate(831.125,648.875)" style="fill: #464952;"/><path d="M0 0 C1.65 0 3.3 0 5 0 C5 7.59 5 15.18 5 23 C3.35 23 1.7 23 0 23 C0 15.41 0 7.82 0 0 Z " transform="translate(499,638)" style="fill: #373A44;"/><path d="M0 0 C1.32 0 2.64 0 4 0 C4.04898438 1.20398438 4.09796875 2.40796875 4.1484375 3.6484375 C4.22346343 5.22398198 4.29901133 6.79950166 4.375 8.375 C4.4059375 9.1690625 4.436875 9.963125 4.46875 10.78125 C4.51816421 15.36667375 4.51816421 15.36667375 7 19 C9.57061311 19.64767793 9.57061311 19.64767793 12 20 C12.33 20.99 12.66 21.98 13 23 C11.3973218 23.10824843 9.79254252 23.18570645 8.1875 23.25 C7.29417969 23.29640625 6.40085937 23.3428125 5.48046875 23.390625 C3 23 3 23 1.1875 21.59375 C-0.66320187 17.5514275 -0.31379143 13.63457932 -0.1875 9.25 C-0.17396484 8.36183594 -0.16042969 7.47367188 -0.14648438 6.55859375 C-0.11121309 4.37177422 -0.06192752 2.18620034 0 0 Z " transform="translate(672,638)" style="fill: #292D36;"/><path d="M0 0 C1.65 0 3.3 0 5 0 C5.33 0.66 5.66 1.32 6 2 C5.34 2 4.68 2 4 2 C4 4.64 4 7.28 4 10 C5.98 10 7.96 10 10 10 C9.01 10.495 9.01 10.495 8 11 C8 11.66 8 12.32 8 13 C7.01 13.33 6.02 13.66 5 14 C4.67 16.64 4.34 19.28 4 22 C2.68 22 1.36 22 0 22 C0 14.74 0 7.48 0 0 Z " transform="translate(1028,639)" style="fill: #262932;"/><path d="M0 0 C2.8125 -0.3125 2.8125 -0.3125 6 0 C8.31141604 2.85074644 9 4.3139451 9 8 C7.68 8 6.36 8 5 8 C5.33 9.98 5.66 11.96 6 14 C4.02 14 2.04 14 0 14 C0.33 12.35 0.66 10.7 1 9 C0.01 8.67 -0.98 8.34 -2 8 C-1.34 5.36 -0.68 2.72 0 0 Z " transform="translate(726,638)" style="fill: #3B3E47;"/><path d="M0 0 C0.99 0.99 1.98 1.98 3 3 C-0.34569321 12.16329035 -3.78264222 21.19206693 -8 30 C-8.99 30 -9.98 30 -11 30 C-9.0173911 22.93487572 -6.592956 16.16273165 -3.8125 9.375 C-3.44447266 8.46621094 -3.07644531 7.55742187 -2.69726562 6.62109375 C-1.80216521 4.41240441 -0.9030465 2.20544952 0 0 Z " transform="translate(816,350)" style="fill: #32554A;"/><path d="M0 0 C9 0 9 0 13 2 C13.04241723 4.33294775 13.04092937 6.66702567 13 9 C12 10 12 10 8.4375 10.0625 C7.303125 10.041875 6.16875 10.02125 5 10 C4.95758277 7.66705225 4.95907063 5.33297433 5 3 C5.33 2.67 5.66 2.34 6 2 C4.35 1.67 2.7 1.34 1 1 C1 8.26 1 15.52 1 23 C0.67 23 0.34 23 0 23 C0 15.41 0 7.82 0 0 Z " transform="translate(1027,638)" style="fill: #57595F;"/><path d="M0 0 C4.95 0 9.9 0 15 0 C15 1.32 15 2.64 15 4 C11.7 4 8.4 4 5 4 C5 5.65 5 7.3 5 9 C4.01 8.67 3.02 8.34 2 8 C1.67 12.95 1.34 17.9 1 23 C0.67 23 0.34 23 0 23 C0 15.41 0 7.82 0 0 Z " transform="translate(1078,638)" style="fill: #464951;"/><path d="M0 0 C0.33 0.66 0.66 1.32 1 2 C2.32 1.67 3.64 1.34 5 1 C5.99 4.63 6.98 8.26 8 12 C4.625 12.125 4.625 12.125 1 12 C0.34 11.34 -0.32 10.68 -1 10 C-1.33 10.99 -1.66 11.98 -2 13 C-2.66 13 -3.32 13 -4 13 C-3.52140759 11.39566191 -3.04210442 9.79153584 -2.5625 8.1875 C-2.29566406 7.29417969 -2.02882813 6.40085937 -1.75390625 5.48046875 C-1.19612127 3.64526945 -0.60655425 1.81966274 0 0 Z " transform="translate(605,641)" style="fill: #42444C;"/><path d="M0 0 C4.29 0 8.58 0 13 0 C13.33 0.66 13.66 1.32 14 2 C13.34 2 12.68 2 12 2 C12 2.66 12 3.32 12 4 C9.03 4 6.06 4 3 4 C2.67 6.97 2.34 9.94 2 13 C1.34 13 0.68 13 0 13 C0 8.71 0 4.42 0 0 Z " transform="translate(793,638)" style="fill: #373A42;"/><path d="M0 0 C9.9543927 -0.61785886 9.9543927 -0.61785886 13.75 1.625 C15 4 15 4 14.9375 7 C14.01837431 9.94120221 13.02557978 11.71021416 11 14 C10.77213542 11.94921875 10.54427083 9.8984375 10.31640625 7.84765625 C10.18113386 5.98859771 10.18113386 5.98859771 9 5 C7.65252916 4.76924918 6.29622435 4.58846937 4.9375 4.4375 C3.638125 4.293125 2.33875 4.14875 1 4 C0.67 2.68 0.34 1.36 0 0 Z " transform="translate(1005,638)" style="fill: #3D3F47;"/><path d="M0 0 C7.425 0.99 7.425 0.99 15 2 C15 3.32 15 4.64 15 6 C11.22301733 7.88849133 7.14697982 7.33134973 3.1875 6.1875 C1 5 1 5 -1 2 C-0.67 1.34 -0.34 0.68 0 0 Z " transform="translate(650,655)" style="fill: #42454D;"/><path d="M0 0 C2.97 0 5.94 0 9 0 C9 3.96 9 7.92 9 12 C6 11 6 11 4 9 C3.875 6.375 3.875 6.375 4 4 C2.68 4 1.36 4 0 4 C0 2.68 0 1.36 0 0 Z " transform="translate(549,648)" style="fill: #464952;"/><path d="M0 0 C0.33 0 0.66 0 1 0 C1.33 3.63 1.66 7.26 2 11 C2.33 11 2.66 11 3 11 C4.25406138 16.78645644 4.11186913 22.48868116 4.0625 28.375 C4.05798828 29.39722656 4.05347656 30.41945313 4.04882812 31.47265625 C4.037103 33.98183194 4.02069176 36.4908849 4 39 C3.67 39 3.34 39 3 39 C2.96261719 37.95199219 2.92523437 36.90398437 2.88671875 35.82421875 C2.82105485 34.44527695 2.75460765 33.06637229 2.6875 31.6875 C2.66494141 30.99720703 2.64238281 30.30691406 2.61914062 29.59570312 C2.56995991 25.67142105 2.56995991 25.67142105 0.47265625 22.58203125 C-1 21 -1 21 -1.2487793 18.73168945 C-1.19117432 17.86761475 -1.13356934 17.00354004 -1.07421875 16.11328125 C-1.01943359 15.17548828 -0.96464844 14.23769531 -0.90820312 13.27148438 C-0.79895508 11.80678711 -0.79895508 11.80678711 -0.6875 10.3125 C-0.5956543 8.83040039 -0.5956543 8.83040039 -0.50195312 7.31835938 C-0.34867116 4.87763881 -0.18082846 2.43880911 0 0 Z " transform="translate(759,363)" style="fill: #516F65;"/><path d="M0 0 C1.98 0 3.96 0 6 0 C6.69699552 1.45381897 7.38233866 2.91322953 8.0625 4.375 C8.44535156 5.18710937 8.82820312 5.99921875 9.22265625 6.8359375 C9.47917969 7.55007813 9.73570312 8.26421875 10 9 C9.67 9.66 9.34 10.32 9 11 C6.9375 11.625 6.9375 11.625 5 12 C4.67 9.36 4.34 6.72 4 4 C2.68 4.33 1.36 4.66 0 5 C0 3.35 0 1.7 0 0 Z " transform="translate(606,638)" style="fill: #383A43;"/><path d="M0 0 C4.62 0 9.24 0 14 0 C14 1.32 14 2.64 14 4 C12.84371094 4.07347656 12.84371094 4.07347656 11.6640625 4.1484375 C10.66117188 4.22320313 9.65828125 4.29796875 8.625 4.375 C7.62726563 4.44460938 6.62953125 4.51421875 5.6015625 4.5859375 C2.84491121 4.76363964 2.84491121 4.76363964 1 7 C1 6.34 1 5.68 1 5 C0.34 4.67 -0.32 4.34 -1 4 C-0.67 2.68 -0.34 1.36 0 0 Z " transform="translate(1125,638)" style="fill: #464952;"/><path d="M0 0 C0.66 0 1.32 0 2 0 C3.36884358 4.51718381 2.47075246 7.58774263 1 12 C-0.98 12 -2.96 12 -5 12 C-4.34 9.03 -3.68 6.06 -3 3 C-2.01 3 -1.02 3 0 3 C0 2.01 0 1.02 0 0 Z " transform="translate(945,640)" style="fill: #3F424A;"/><path d="M0 0 C2.75 -0.375 2.75 -0.375 6 0 C8.5 2.5625 8.5 2.5625 10 6 C9.25 9.875 9.25 9.875 8 13 C5.81302498 10.20375042 4.00847187 7.36692128 2.3125 4.25 C1.65701172 3.05117188 1.65701172 3.05117188 0.98828125 1.828125 C0.66214844 1.22484375 0.33601563 0.6215625 0 0 Z " transform="translate(1097,638)" style="fill: #3B3E48;"/><path d="M0 0 C0.33 0 0.66 0 1 0 C1 2.31 1 4.62 1 7 C1.66 7 2.32 7 3 7 C3 11.95 3 16.9 3 22 C2.01 22 1.02 22 0 22 C0 14.74 0 7.48 0 0 Z " transform="translate(513,639)" style="fill: #24272F;"/><path d="M0 0 C2.31 0 4.62 0 7 0 C7.625 2.375 7.625 2.375 8 5 C6 7 6 7 2.875 7.125 C1.451875 7.063125 1.451875 7.063125 0 7 C0 4.69 0 2.38 0 0 Z " transform="translate(904,642)" style="fill: #EAEAEB;"/><path d="M0 0 C0.99 0 1.98 0 3 0 C3 7.26 3 14.52 3 22 C2.67 22 2.34 22 2 22 C1.67 19.69 1.34 17.38 1 15 C0.67 15 0.34 15 0 15 C0 10.05 0 5.1 0 0 Z " transform="translate(1067,639)" style="fill: #292C37;"/><path d="M0 0 C4.29 0 8.58 0 13 0 C10 2 10 2 6.9375 2.375 C3.97408697 2.6619515 3.97408697 2.6619515 2.85546875 4.5859375 C1.70948632 7.81980574 1.56503428 10.82938292 1.375 14.25 C1.30023437 15.51328125 1.22546875 16.7765625 1.1484375 18.078125 C1.09945312 19.04234375 1.05046875 20.0065625 1 21 C0.67 21 0.34 21 0 21 C0 14.07 0 7.14 0 0 Z " transform="translate(900,639)" style="fill: #292B35;"/><path d="M0 0 C2.31 0 4.62 0 7 0 C7.38218767 1.65614657 7.71395102 3.32457024 8 5 C7 6 7 6 3.4375 6.0625 C2.303125 6.041875 1.16875 6.02125 0 6 C0 4.02 0 2.04 0 0 Z " transform="translate(1032,642)" style="fill: #F1F1F1;"/><path d="M0 0 C3.96 0 7.92 0 12 0 C12 1.32 12 2.64 12 4 C8.37 4.33 4.74 4.66 1 5 C0.67 3.35 0.34 1.7 0 0 Z " transform="translate(408,638)" style="fill: #45484F;"/><path d="M0 0 C3 3 3 3 3.29296875 6.35546875 C3.25816406 7.62003906 3.22335937 8.88460938 3.1875 10.1875 C3.16042969 11.45980469 3.13335938 12.73210937 3.10546875 14.04296875 C3.07066406 15.01878906 3.03585937 15.99460937 3 17 C2.01 17 1.02 17 0 17 C0 11.39 0 5.78 0 0 Z " transform="translate(763,385)" style="fill: #F6F8F7;"/><path d="M0 0 C2.31 0 4.62 0 7 0 C7 1.98 7 3.96 7 6 C4.69 6 2.38 6 0 6 C0 4.02 0 2.04 0 0 Z " transform="translate(798,642)" style="fill: #F6F6F7;"/><path d="M0 0 C1.98 0 3.96 0 6 0 C5.67 1.65 5.34 3.3 5 5 C3.35 5 1.7 5 0 5 C-0.66 7.31 -1.32 9.62 -2 12 C-2.66 12 -3.32 12 -4 12 C-2.66666667 8 -1.33333333 4 0 0 Z " transform="translate(940,638)" style="fill: #3C3F49;"/><path d="M0 0 C3.53677664 -0.32152515 5.3962104 -0.4131192 8.375 1.625 C10.4131192 4.6037896 10.32152515 6.46322336 10 10 C9.01 10.495 9.01 10.495 8 11 C7.67 9.68 7.34 8.36 7 7 C6.01 7.495 6.01 7.495 5 8 C4.9175 7.05125 4.835 6.1025 4.75 5.125 C4.34925077 1.89538209 4.34925077 1.89538209 1.9375 0.625 C1.298125 0.41875 0.65875 0.2125 0 0 Z " transform="translate(1035,638)" style="fill: #41424B;"/><path d="M0 0 C0.33 0.66 0.66 1.32 1 2 C3.01669827 3.13350534 3.01669827 3.13350534 5 4 C4.0925 4.0825 3.185 4.165 2.25 4.25 C-1.40077839 5.09248732 -2.63384583 6.17881618 -5 9 C-5.66 8.01 -6.32 7.02 -7 6 C-4.2 0 -4.2 0 0 0 Z " transform="translate(455,638)" style="fill: #3C4048;"/><path d="M0 0 C0.66 0 1.32 0 2 0 C2.56561146 5.65611463 0.71391278 9.22642128 -2 14 C-2.66 14 -3.32 14 -4 14 C-3.36843005 8.94744036 -1.86540627 4.70406799 0 0 Z " transform="translate(701,329)" style="fill: #264A40;"/><path d="M0 0 C1.16015625 0.02320313 1.16015625 0.02320313 2.34375 0.046875 C4.5 0.25 4.5 0.25 7.5 1.25 C7.5 1.91 7.5 2.57 7.5 3.25 C3.54 3.25 -0.42 3.25 -4.5 3.25 C-5.16 5.23 -5.82 7.21 -6.5 9.25 C-6.83 9.25 -7.16 9.25 -7.5 9.25 C-7.86656323 3.75155159 -7.86656323 3.75155159 -6.26953125 1.56640625 C-4.02308747 -0.10478923 -2.7720625 -0.09240208 0 0 Z " transform="translate(482.5,637.75)" style="fill: #282C35;"/><path d="M0 0 C0.33 0 0.66 0 1 0 C1 5.28 1 10.56 1 16 C0.01 16 -0.98 16 -2 16 C-2.05423638 14.08364783 -2.09289963 12.16685075 -2.125 10.25 C-2.14820313 9.18265625 -2.17140625 8.1153125 -2.1953125 7.015625 C-2.00487687 4.07529894 -1.52670104 2.47638122 0 0 Z " transform="translate(763,344)" style="fill: #12342B;"/><path d="M0 0 C0.33 0 0.66 0 1 0 C1 1.65 1 3.3 1 5 C1.99 5 2.98 5 4 5 C4 9.95 4 14.9 4 20 C3.67 20 3.34 20 3 20 C2.67 17.36 2.34 14.72 2 12 C1.01 12.495 1.01 12.495 0 13 C0 8.71 0 4.42 0 0 Z " transform="translate(761,335)" style="fill: #3B574F;"/><path d="M0 0 C1.90389849 2.85584773 2.69462177 4.9311762 3.625 8.1875 C3.88539063 9.08855469 4.14578125 9.98960937 4.4140625 10.91796875 C4.60742188 11.60503906 4.80078125 12.29210937 5 13 C4.01 13 3.02 13 2 13 C1.32880451 11.5437455 0.66318193 10.08492133 0 8.625 C-0.37125 7.81289063 -0.7425 7.00078125 -1.125 6.1640625 C-2 4 -2 4 -2 2 C-1.34 2 -0.68 2 0 2 C0 1.34 0 0.68 0 0 Z " transform="translate(725,367)" style="fill: #30554C;"/><path d="M0 0 C0 1.32 0 2.64 0 4 C-3.96 4 -7.92 4 -12 4 C-12.33 3.34 -12.66 2.68 -13 2 C-11.20873548 1.66451233 -9.41697413 1.33167645 -7.625 1 C-6.62726563 0.814375 -5.62953125 0.62875 -4.6015625 0.4375 C-2 0 -2 0 0 0 Z " transform="translate(420,657)" style="fill: #262833;"/><path d="M0 0 C0.99 0 1.98 0 3 0 C2.49357808 4.35522853 1.61588503 7.44239635 -1 11 C-1.66 11 -2.32 11 -3 11 C-2.53199289 6.94393835 -2.12046792 3.53411321 0 0 Z " transform="translate(690,357)" style="fill: #264840;"/><path d="M0 0 C3.3 0 6.6 0 10 0 C10 0.99 10 1.98 10 3 C5.71 3 1.42 3 -3 3 C-2.01 2.67 -1.02 2.34 0 2 C0 1.34 0 0.68 0 0 Z " transform="translate(704,658)" style="fill: #272B33;"/><path d="M0 0 C1.32 0.33 2.64 0.66 4 1 C3.01 3.64 2.02 6.28 1 9 C-0.32 9 -1.64 9 -3 9 C-2.01 6.03 -1.02 3.06 0 0 Z " transform="translate(824,330)" style="fill: #274840;"/><path d="M0 0 C3 4.22222222 3 4.22222222 3 7 C1.35 7 -0.3 7 -2 7 C-2.66 5.02 -3.32 3.04 -4 1 C-3 0 -3 0 0 0 Z " transform="translate(808,654)" style="fill: #34373F;"/><path d="M0 0 C2.97 0 5.94 0 9 0 C9 1.32 9 2.64 9 4 C5.7 3.67 2.4 3.34 -1 3 C-0.67 2.01 -0.34 1.02 0 0 Z " transform="translate(548,638)" style="fill: #32353E;"/><path d="M0 0 C0.12375 0.639375 0.2475 1.27875 0.375 1.9375 C0.58125 2.618125 0.7875 3.29875 1 4 C1.66 4.33 2.32 4.66 3 5 C0.59454362 6.20272819 -0.94996953 6.10071472 -3.625 6.0625 C-4.85089844 6.04896484 -4.85089844 6.04896484 -6.1015625 6.03515625 C-7.04128906 6.01775391 -7.04128906 6.01775391 -8 6 C-7.67 5.01 -7.34 4.02 -7 3 C-5.5459375 2.814375 -5.5459375 2.814375 -4.0625 2.625 C-2.5465625 2.315625 -2.5465625 2.315625 -1 2 C-0.67 1.34 -0.34 0.68 0 0 Z " transform="translate(554,655)" style="fill: #282C37;"/><path d="M0 0 C2.7972908 2.06756277 3.02692273 3.14440371 3.6875 6.6875 C3.790625 7.780625 3.89375 8.87375 4 10 C1 9 1 9 -0.25 6.6875 C-1.0275526 3.90126985 -0.98726527 2.66561622 0 0 Z " transform="translate(721,359)" style="fill: #153831;"/><path d="M0 0 C0.99 0.99 1.98 1.98 3 3 C2.01 5.97 1.02 8.94 0 12 C-0.99 11.34 -1.98 10.68 -3 10 C-2.01 6.7 -1.02 3.4 0 0 Z " transform="translate(816,350)" style="fill: #35584F;"/><path d="M0 0 C3.3 0 6.6 0 10 0 C10 0.99 10 1.98 10 3 C7.03 3 4.06 3 1 3 C0.67 2.01 0.34 1.02 0 0 Z " transform="translate(817,658)" style="fill: #242832;"/><path d="M0 0 C0.66 0 1.32 0 2 0 C2.66 2.64 3.32 5.28 4 8 C2.02 8 0.04 8 -2 8 C-1.34 5.36 -0.68 2.72 0 0 Z " transform="translate(942,644)" style="fill: #DDDEE0;"/><path d="M0 0 C2.97 0 5.94 0 9 0 C9 0.99 9 1.98 9 3 C6.03 3 3.06 3 0 3 C0 2.01 0 1.02 0 0 Z " transform="translate(1083,648)" style="fill: #2B2E36;"/><path d="M0 0 C1.41377341 2.63904371 2.37240135 5.07120629 3 8 C1.02 8 -0.96 8 -3 8 C-1.125 1.125 -1.125 1.125 0 0 Z " transform="translate(729,644)" style="fill: #E0E0E1;"/><path d="M0 0 C0 0.99 0 1.98 0 3 C-1.62463842 3.05395478 -3.24978541 3.09277195 -4.875 3.125 C-5.77992187 3.14820313 -6.68484375 3.17140625 -7.6171875 3.1953125 C-10 3 -10 3 -12 1 C-7.95858806 0.36605303 -4.0934693 -0.12404452 0 0 Z " transform="translate(1093,638)" style="fill: #2A2F38;"/><path d="M0 0 C2.64 0 5.28 0 8 0 C7.67 1.32 7.34 2.64 7 4 C4.36 3.67 1.72 3.34 -1 3 C-0.67 2.01 -0.34 1.02 0 0 Z " transform="translate(656,638)" style="fill: #252832;"/><path d="M0 0 C2.67927341 4.01891012 2.15601248 6.24161923 2 11 C1.01 11 0.02 11 -1 11 C-1.125 3.375 -1.125 3.375 0 0 Z " transform="translate(763,329)" style="fill: #0E2F27;"/><path d="M0 0 C2.64 0 5.28 0 8 0 C8 0.99 8 1.98 8 3 C4.7 3 1.4 3 -2 3 C-1.34 2.67 -0.68 2.34 0 2 C0 1.34 0 0.68 0 0 Z " transform="translate(585,658)" style="fill: #272C36;"/><path d="M0 0 C0.66 0 1.32 0 2 0 C1.67 1.32 1.34 2.64 1 4 C1.66 4 2.32 4 3 4 C3 5.32 3 6.64 3 8 C1.35 8 -0.3 8 -2 8 C-1.47731534 5.23723823 -0.89130413 2.6739124 0 0 Z " transform="translate(934,653)" style="fill: #3A3E47;"/><path d="M0 0 C1.9451 2.91765 2.45276317 4.62537285 3 8 C1.35 8 -0.3 8 -2 8 C-1.125 1.125 -1.125 1.125 0 0 Z " transform="translate(609,644)" style="fill: #E4E4E5;"/><path d="M0 0 C0 3 0 3 -1.53125 4.82421875 C-2.1809375 5.43910156 -2.830625 6.05398438 -3.5 6.6875 C-4.1496875 7.31011719 -4.799375 7.93273437 -5.46875 8.57421875 C-5.9740625 9.04472656 -6.479375 9.51523437 -7 10 C-7.66 9.67 -8.32 9.34 -9 9 C-7.87895467 7.68412059 -6.75303035 6.37239647 -5.625 5.0625 C-4.99851562 4.33160156 -4.37203125 3.60070312 -3.7265625 2.84765625 C-2 1 -2 1 0 0 Z " transform="translate(519,491)" style="fill: #28493F;"/><path d="M0 0 C2.12508244 3.18762365 2.5020163 5.26512223 3 9 C2.01 9 1.02 9 0 9 C-0.66 6.69 -1.32 4.38 -2 2 C-1.34 2 -0.68 2 0 2 C0 1.34 0 0.68 0 0 Z " transform="translate(850,371)" style="fill: #34564D;"/><path d="M0 0 C0 0.99 0 1.98 0 3 C-2.64 3 -5.28 3 -8 3 C-8 2.01 -8 1.02 -8 0 C-4.71303767 -0.79953138 -3.28976808 -1.09658936 0 0 Z " transform="translate(781,658)" style="fill: #2A2F38;"/><path d="M0 0 C1.32 0 2.64 0 4 0 C6 3 6 3 6 6 C4.68 6.33 3.36 6.66 2 7 C1.34 4.69 0.68 2.38 0 0 Z " transform="translate(1059,648)" style="fill: #333641;"/><path d="M0 0 C1.65 0 3.3 0 5 0 C3.7508258 3.45925163 2.32472205 6.14693203 0 9 C0.33 7.02 0.66 5.04 1 3 C0.34 3 -0.32 3 -1 3 C-0.67 2.01 -0.34 1.02 0 0 Z " transform="translate(1113,638)" style="fill: #3C4049;"/><path d="M0 0 C0.33 0 0.66 0 1 0 C1 2.31 1 4.62 1 7 C-0.65 7 -2.3 7 -4 7 C-3.34 5.35 -2.68 3.7 -2 2 C-1.34 2 -0.68 2 0 2 C0 1.34 0 0.68 0 0 Z " transform="translate(722,654)" style="fill: #2C313A;"/><path d="M0 0 C1.32 0 2.64 0 4 0 C4 0.99 4 1.98 4 3 C3.071875 3.268125 2.14375 3.53625 1.1875 3.8125 C-1.76240366 4.91148371 -3.05615186 5.62418561 -5 8 C-4.34 6.35 -3.68 4.7 -3 3 C-2.34 3 -1.68 3 -1 3 C-0.67 2.01 -0.34 1.02 0 0 Z " transform="translate(774,638)" style="fill: #2B2F38;"/><path d="M0 0 C1.5625 1.75 1.5625 1.75 3 4 C2.73495121 7.00388632 2.16695725 7.83304275 0 10 C-0.19412181 8.52168779 -0.38012131 7.04230684 -0.5625 5.5625 C-0.66691406 4.73878906 -0.77132812 3.91507812 -0.87890625 3.06640625 C-0.91886719 2.38449219 -0.95882812 1.70257813 -1 1 C-0.67 0.67 -0.34 0.34 0 0 Z " transform="translate(833,329)" style="fill: #2F4D45;"/><path d="M0 0 C-0.33 2.31 -0.66 4.62 -1 7 C-1.99 7 -2.98 7 -4 7 C-3.625 4.0625 -3.625 4.0625 -3 1 C-1 0 -1 0 0 0 Z " transform="translate(815,359)" style="fill: #294B42;"/><path d="M0 0 C0.99 0 1.98 0 3 0 C3.33 2.31 3.66 4.62 4 7 C3.01 6.67 2.02 6.34 1 6 C0.67 4.02 0.34 2.04 0 0 Z " transform="translate(840,351)" style="fill: #1C3C34;"/><path d="M0 0 C0.33 2.31 0.66 4.62 1 7 C0.01 7 -0.98 7 -2 7 C-2.38133299 5.0085944 -2.71325582 3.00720923 -3 1 C-2 0 -2 0 0 0 Z " transform="translate(837,336)" style="fill: #1F3E36;"/><path d="M0 0 C0.66 0.99 1.32 1.98 2 3 C-0.97 3 -3.94 3 -7 3 C-7 2.34 -7 1.68 -7 1 C-4.46578263 -0.26710868 -2.80561762 -0.28056176 0 0 Z " transform="translate(1012,658)" style="fill: #2A2D37;"/><path d="M0 0 C2.31 0 4.62 0 7 0 C6.67 0.99 6.34 1.98 6 3 C6 2.34 6 1.68 6 1 C5.01 1.66 4.02 2.32 3 3 C1.67432801 3.68177416 0.34246312 4.35191436 -1 5 C-0.67 3.35 -0.34 1.7 0 0 Z " transform="translate(487,540)" style="fill: #4F6A62;"/><path d="M0 0 C-1.28519565 2.86697492 -2.57129254 4.97607712 -5 7 C-5.66 7 -6.32 7 -7 7 C-3.86206897 0 -3.86206897 0 0 0 Z " transform="translate(709,452)" style="fill: #383B42;"/><path d="M0 0 C-1.49097658 3.7952131 -3.75700849 5.61042731 -7 8 C-4.18918919 0 -4.18918919 0 0 0 Z " transform="translate(1110,464)" style="fill: #3A3D46;"/><path d="M0 0 C2.1385485 2.1385485 2.42655063 3.13275314 3 6 C1.02 6 -0.96 6 -3 6 C-3 5.34 -3 4.68 -3 4 C-2.01 4 -1.02 4 0 4 C0 2.68 0 1.36 0 0 Z " transform="translate(738,655)" style="fill: #3F424A;"/><path d="M0 0 C1.65 0 3.3 0 5 0 C5 0.66 5 1.32 5 2 C5.66 2.33 6.32 2.66 7 3 C4.69 3 2.38 3 0 3 C0 2.01 0 1.02 0 0 Z " transform="translate(585,638)" style="fill: #272933;"/></svg>